<svg xmlns="http://www.w3.org/2000/svg" viewBox="0 0 185.15 108.83"><defs><style>.cls-1{fill:#fff;}</style></defs><g id="Layer_2" data-name="Layer 2"><g id="Layer_1-2" data-name="Layer 1"><path class="cls-1" d="M1.42,58.1A10.18,10.18,0,0,1,5.3,54.22a11,11,0,0,1,5.51-1.39,10.85,10.85,0,0,1,6.26,1.83,12.65,12.65,0,0,1,3.22,4c.3.58,0,1-.65,1H17.1a2.46,2.46,0,0,1-1.84-1,4.61,4.61,0,0,0-1.41-1.3,6,6,0,0,0-3.07-.76,6.29,6.29,0,0,0-3.31.87A5.92,5.92,0,0,0,5.21,60a8.92,8.92,0,0,0,0,7.43,5.91,5.91,0,0,0,2.26,2.48,6.29,6.29,0,0,0,3.31.87A5.94,5.94,0,0,0,13.85,70a4.71,4.71,0,0,0,1.41-1.31,2.47,2.47,0,0,1,1.84-1h2.54a.67.67,0,0,1,.65,1.06,12.67,12.67,0,0,1-3.2,4,10.92,10.92,0,0,1-6.28,1.82A11.08,11.08,0,0,1,5.3,73.22a10.23,10.23,0,0,1-3.88-3.87,11.85,11.85,0,0,1,0-11.25Z"/><path class="cls-1" d="M26.36,51.82A1.19,1.19,0,0,1,27.55,53V73.24a1.18,1.18,0,0,1-1.19,1.18h-1.9a1.19,1.19,0,0,1-1.19-1.18V53a1.2,1.2,0,0,1,1.19-1.19Z"/><path class="cls-1" d="M33.66,73.61a7.75,7.75,0,0,1-3.07-3.07,9.81,9.81,0,0,1,0-9.16,8,8,0,0,1,3.13-3.07,9.63,9.63,0,0,1,8.86,0,8,8,0,0,1,3.13,3.07A9,9,0,0,1,46.88,66a8.84,8.84,0,0,1-1.17,4.58,8.15,8.15,0,0,1-3.18,3.07,9.13,9.13,0,0,1-4.47,1.09A8.84,8.84,0,0,1,33.66,73.61Zm6.58-3.2a4.06,4.06,0,0,0,1.63-1.7A5.67,5.67,0,0,0,42.49,66a5.12,5.12,0,0,0-1.27-3.71,4.2,4.2,0,0,0-3.1-1.3,4.09,4.09,0,0,0-3.07,1.3A5.15,5.15,0,0,0,33.81,66,5.21,5.21,0,0,0,35,69.67a3.94,3.94,0,0,0,3,1.3A4.51,4.51,0,0,0,40.24,70.41Z"/><path class="cls-1" d="M63.59,57.5a1.19,1.19,0,0,1,1.19,1.19V73.24a1.18,1.18,0,0,1-1.19,1.18H61.66a1.13,1.13,0,0,1-1.18-1.07c0-.58-.38-.68-.83-.21a4.93,4.93,0,0,1-1.33.87,6.63,6.63,0,0,1-2.88.63,7.19,7.19,0,0,1-3.52-.84,6,6,0,0,1-2.4-2.48,8.72,8.72,0,0,1-.74-2.71c-.07-.65-.13-1.72-.13-2.37V58.69a1.2,1.2,0,0,1,1.19-1.19h1.9a1.19,1.19,0,0,1,1.19,1.19v6.94A20.64,20.64,0,0,0,53.1,68a4.1,4.1,0,0,0,.84,1.93A3.58,3.58,0,0,0,56.69,71a3.62,3.62,0,0,0,2.78-1.08A4.1,4.1,0,0,0,60.31,68a20.64,20.64,0,0,0,.17-2.36V58.69a1.19,1.19,0,0,1,1.18-1.19Z"/><path class="cls-1" d="M67.7,61.35a7.37,7.37,0,0,1,6.73-4.12,7.19,7.19,0,0,1,3.15.72,5.72,5.72,0,0,1,1.56,1c.45.47.82.32.82-.33V53a1.2,1.2,0,0,1,1.19-1.19h2A1.2,1.2,0,0,1,84.3,53V73.24a1.19,1.19,0,0,1-1.19,1.18h-2A1.19,1.19,0,0,1,80,73.24v-.13c0-.66-.34-.78-.76-.28a5.25,5.25,0,0,1-1.47,1.1,7,7,0,0,1-3.33.77,7.31,7.31,0,0,1-3.91-1.1,7.64,7.64,0,0,1-2.79-3.1,10,10,0,0,1-1-4.6A9.81,9.81,0,0,1,67.7,61.35Zm11.68,1.94A4.39,4.39,0,0,0,75.5,61a4.27,4.27,0,0,0-3.83,2.28A5.26,5.26,0,0,0,71,65.9a5.43,5.43,0,0,0,.63,2.67,4.53,4.53,0,0,0,1.65,1.76,4.15,4.15,0,0,0,2.18.61,4.45,4.45,0,0,0,2.23-.59,4.38,4.38,0,0,0,1.65-1.71A5.5,5.5,0,0,0,80,66,5.43,5.43,0,0,0,79.38,63.29Z"/><path class="cls-1" d="M96.65,73.87a6.56,6.56,0,0,1-2.82-2.2,5.85,5.85,0,0,1-.89-2.21,1,1,0,0,1,1-1.18h2.2a1.57,1.57,0,0,1,1.46,1.16,2.1,2.1,0,0,0,.66.92,3.3,3.3,0,0,0,2.31.76,3.53,3.53,0,0,0,2.35-.71,2.35,2.35,0,0,0,.86-1.88A2.18,2.18,0,0,0,103.2,67a3.92,3.92,0,0,0-1.45-1,24.16,24.16,0,0,0-2.39-.78A25.66,25.66,0,0,1,96,64a5.82,5.82,0,0,1-2.23-1.8A5.13,5.13,0,0,1,92.82,59a5.79,5.79,0,0,1,1-3.3,6,6,0,0,1,2.65-2.15,9.67,9.67,0,0,1,3.91-.75,8.46,8.46,0,0,1,5.36,1.6,7.2,7.2,0,0,1,2,3.33.88.88,0,0,1-.89,1.15h-2.33A1.64,1.64,0,0,1,103,57.73s0-.19-.63-.67a3.48,3.48,0,0,0-2.3-.72A3,3,0,0,0,98,57a2.33,2.33,0,0,0-.75,1.87,2,2,0,0,0,.56,1.42,4.4,4.4,0,0,0,1.41.91,22.33,22.33,0,0,0,2.37.81A26.83,26.83,0,0,1,105,63.21a6.12,6.12,0,0,1,2.26,1.84,5.07,5.07,0,0,1,.94,3.2,6.05,6.05,0,0,1-.88,3.18,6.25,6.25,0,0,1-2.6,2.34,8.84,8.84,0,0,1-4.06.87A10.11,10.11,0,0,1,96.65,73.87Z"/><path class="cls-1" d="M110.61,61.35a7.49,7.49,0,0,1,2.78-3.05,7.34,7.34,0,0,1,3.93-1.07,6.88,6.88,0,0,1,3.31.76,6,6,0,0,1,1.46,1.06c.45.48.82.33.82-.32v0a1.19,1.19,0,0,1,1.18-1.19H126a1.19,1.19,0,0,1,1.19,1.19V73.24A1.18,1.18,0,0,1,126,74.42h-1.93a1.18,1.18,0,0,1-1.18-1.18v-.1c0-.66-.36-.79-.8-.31a5.82,5.82,0,0,1-1.48,1.09,7,7,0,0,1-3.34.78,7.22,7.22,0,0,1-3.9-1.1,7.69,7.69,0,0,1-2.78-3.1,10,10,0,0,1-1-4.6A9.81,9.81,0,0,1,110.61,61.35Zm11.68,1.94a4.25,4.25,0,0,0-1.65-1.71,4.43,4.43,0,0,0-4.42,0,4.4,4.4,0,0,0-1.64,1.7A5.26,5.26,0,0,0,114,65.9a5.43,5.43,0,0,0,.62,2.67,4.53,4.53,0,0,0,1.65,1.76,4.16,4.16,0,0,0,2.19.61,4.44,4.44,0,0,0,2.22-.59,4.25,4.25,0,0,0,1.65-1.71,5.5,5.5,0,0,0,.62-2.68A5.43,5.43,0,0,0,122.29,63.29Z"/><path class="cls-1" d="M144.44,59.17c1.24,1.27,1.68,4.15,1.68,4.15a18.75,18.75,0,0,1,.18,2.36v7.56a1.18,1.18,0,0,1-1.19,1.18h-1.9A1.19,1.19,0,0,1,142,73.24v-7a20.79,20.79,0,0,0-.16-2.36A4.08,4.08,0,0,0,141,62a3.56,3.56,0,0,0-2.75-1.09,3.66,3.66,0,0,0-2.8,1.09,4,4,0,0,0-.85,1.92,20.81,20.81,0,0,0-.17,2.36v7a1.18,1.18,0,0,1-1.19,1.18h-1.9a1.19,1.19,0,0,1-1.19-1.18V58.69a1.2,1.2,0,0,1,1.19-1.19h1.9a1.13,1.13,0,0,1,1.19,1.06c0,.58.38.67.84.21a5.06,5.06,0,0,1,1.34-.89,6.89,6.89,0,0,1,2.92-.62A6.49,6.49,0,0,1,144.44,59.17Z"/><path class="cls-1" d="M149.07,61.35a7.46,7.46,0,0,1,2.77-3.05,7.36,7.36,0,0,1,3.93-1.07,6.85,6.85,0,0,1,3.31.76,6.24,6.24,0,0,1,1.47,1.06c.44.48.81.33.81-.32v0a1.19,1.19,0,0,1,1.19-1.19h1.93a1.2,1.2,0,0,1,1.19,1.19V73.24a1.19,1.19,0,0,1-1.19,1.18h-1.93a1.18,1.18,0,0,1-1.19-1.18v-.1c0-.66-.36-.79-.8-.31a5.82,5.82,0,0,1-1.48,1.09,6.92,6.92,0,0,1-3.34.78,7.25,7.25,0,0,1-3.9-1.1,7.67,7.67,0,0,1-2.77-3.1,9.87,9.87,0,0,1-1-4.6A9.69,9.69,0,0,1,149.07,61.35Zm11.68,1.94a4.36,4.36,0,0,0-7.71,0,5.26,5.26,0,0,0-.63,2.64,5.43,5.43,0,0,0,.63,2.67,4.39,4.39,0,0,0,1.65,1.76,4.13,4.13,0,0,0,2.18.61,4.48,4.48,0,0,0,2.23-.59,4.38,4.38,0,0,0,1.65-1.71,5.61,5.61,0,0,0,.61-2.68A5.54,5.54,0,0,0,160.75,63.29Z"/><path class="cls-1" d="M168.55,61.35a7.4,7.4,0,0,1,6.74-4.12,7.15,7.15,0,0,1,3.14.72A5.72,5.72,0,0,1,180,59c.45.47.82.32.82-.33V53A1.2,1.2,0,0,1,182,51.82h2A1.19,1.19,0,0,1,185.15,53V73.24A1.18,1.18,0,0,1,184,74.42h-2a1.19,1.19,0,0,1-1.19-1.18v-.13c0-.66-.34-.78-.76-.28a5.25,5.25,0,0,1-1.47,1.1,6.93,6.93,0,0,1-3.32.77,7.28,7.28,0,0,1-3.91-1.1,7.6,7.6,0,0,1-2.8-3.1,10,10,0,0,1-1-4.6A9.81,9.81,0,0,1,168.55,61.35Zm11.68,1.94a4.25,4.25,0,0,0-1.65-1.71,4.43,4.43,0,0,0-4.42,0,4.4,4.4,0,0,0-1.64,1.7,5.26,5.26,0,0,0-.62,2.64,5.43,5.43,0,0,0,.62,2.67,4.53,4.53,0,0,0,1.65,1.76,4.16,4.16,0,0,0,2.19.61,4.44,4.44,0,0,0,2.22-.59,4.25,4.25,0,0,0,1.65-1.71,5.5,5.5,0,0,0,.62-2.68A5.43,5.43,0,0,0,180.23,63.29Z"/><path class="cls-1" d="M42.12,18.91a2.47,2.47,0,0,1-1.75,4.22,2.47,2.47,0,0,1-2.46-2.47,2.47,2.47,0,0,1,4.21-1.75Z"/><path class="cls-1" d="M106.83,28.78,95.24,40.36l-.25.25a19.45,19.45,0,0,1-12.65,5.45l0,0H61V46a15.61,15.61,0,0,1-7.92-2.88l-.48-.37H39.54a2.47,2.47,0,0,1-1.74-4.21A2.43,2.43,0,0,1,38.9,38H58.15a2.59,2.59,0,0,0,2.58-2.58,2.57,2.57,0,0,0-2.58-2.58H29.51A2.48,2.48,0,0,1,27,30.32a2.48,2.48,0,0,1,2.47-2.46H54.33A2.46,2.46,0,0,0,53.6,23H46.15a2.47,2.47,0,0,1,0-4.93h6.29a15.61,15.61,0,0,1,8.28-3.36A19.24,19.24,0,0,1,79.44,0,19.48,19.48,0,0,1,82.1.18h0a3.53,3.53,0,0,1,2,1,3.45,3.45,0,0,1,0,4.87L72.5,17.62l-.12.12a12.63,12.63,0,0,0,17.76,18l.23-.22L102,23.91a3.44,3.44,0,1,1,4.87,4.87Z"/><path class="cls-1" d="M157.81,30.51A2.49,2.49,0,0,1,155.34,33h-30a2.46,2.46,0,0,0-.35,4.89,2,2,0,0,0,.35,0h24.43a2.47,2.47,0,0,1,2.11,2.43,2.46,2.46,0,0,1-2.47,2.47H133.53a15.61,15.61,0,0,1-8.4,3.24v.05H110.86v0a3.44,3.44,0,0,1-2.45-5.88l8.26-8.25.13-.12A12.64,12.64,0,0,0,99,13.84l-.23.22L87.22,25.65a3.45,3.45,0,0,1-4.88-4.87L94.18,8.94a19.54,19.54,0,0,1,31.26,5.81,15.54,15.54,0,0,1,8.37,3.44h9.37a2.47,2.47,0,0,1,2.47,2.47,2.43,2.43,0,0,1-.73,1.74,2.46,2.46,0,0,1-1.74.72H128.33a2.47,2.47,0,0,0-2.47,2.46h0a2.47,2.47,0,0,0,2.47,2.46h27A2.47,2.47,0,0,1,157.81,30.51Z"/><rect class="cls-1" x="30.82" y="38.23" width="4.93" height="4.93" rx="2.46"/><path class="cls-1" d="M151.22,18.91a2.46,2.46,0,1,1-1.74-.72A2.46,2.46,0,0,1,151.22,18.91Z"/><rect class="cls-1" x="153.32" y="38.23" width="4.93" height="4.93" rx="2.46"/><path class="cls-1" d="M43.29,101.83c-.11,0-.15,0-.09,0l.37,0Zm9.2-19a1.92,1.92,0,0,0-1.39-.54,1.88,1.88,0,0,0-1.35.54,1.76,1.76,0,0,0-.55,1.31,1.8,1.8,0,0,0,.55,1.32A1.88,1.88,0,0,0,51.1,86a1.92,1.92,0,0,0,1.39-.54A1.8,1.8,0,0,0,53,84.11,1.76,1.76,0,0,0,52.49,82.8Z"/><path class="cls-1" d="M55.3,101.83h-.09l.33,0Z"/><path class="cls-1" d="M85.49,89.11a.23.23,0,0,1,.23.23v12.28a.24.24,0,0,1-.23.23H78.75l-.46,0a5.39,5.39,0,0,1-2-.63,7.66,7.66,0,0,1-1.14-1.27.16.16,0,0,0-.27,0,5.45,5.45,0,0,1-1.44,1.4,8.09,8.09,0,0,1-2.13.5,3.71,3.71,0,0,1-.47,0h-.56a3.55,3.55,0,0,1-.46,0,6,6,0,0,1-2-.59A6.94,6.94,0,0,1,66.68,100a.16.16,0,0,0-.28,0A5.59,5.59,0,0,1,65,101.32a8.88,8.88,0,0,1-2.25.51l-.46,0H55.44l-.32,0a3.26,3.26,0,0,1-1.71-.64,7.41,7.41,0,0,1-1.16-1.29.17.17,0,0,0-.28,0,6.79,6.79,0,0,1-1.38,1.35,6.68,6.68,0,0,1-2.09.58,3.55,3.55,0,0,1-.46,0H43.47a2.78,2.78,0,0,1-.38,0,3.37,3.37,0,0,1-1.6-.58A7.11,7.11,0,0,1,40.28,100a.16.16,0,0,0-.27,0,6.09,6.09,0,0,1-1.42,1.36,7.47,7.47,0,0,1-2.06.51,3.44,3.44,0,0,1-.46,0H29a.23.23,0,0,1-.23-.23V98.37a.23.23,0,0,1,.23-.24h6.84a3.67,3.67,0,0,0,.46,0s.59-.09.76-.35a2.23,2.23,0,0,0,.26-1.22c0-.85,0-1.6-.1-2.25a3.6,3.6,0,0,0-.48-1.6,2.4,2.4,0,0,0-1.14-1,8.69,8.69,0,0,0-1.83-.3l-.46,0H30.71a.23.23,0,0,1-.23-.23V88.12a.23.23,0,0,1,.23-.23H34l.47,0a13.91,13.91,0,0,1,2.9.51,5.14,5.14,0,0,1,2,1.45,5.63,5.63,0,0,1,1.1,2.2,10.39,10.39,0,0,1,.34,2.74,4,4,0,0,0,.67,2.48c.45.56,2,.81,2,.81a3.67,3.67,0,0,0,.46,0h3.89a3.57,3.57,0,0,0,.46,0s.56-.1.72-.4a3.56,3.56,0,0,0,.22-1c0-.13,0-.33,0-.46v-6.9a.23.23,0,0,1,.23-.23h3.18a.23.23,0,0,1,.24.23V95a3.55,3.55,0,0,0,0,.46,5.46,5.46,0,0,0,.57,1.88c.41.56,2,.8,2,.8a3.44,3.44,0,0,0,.46,0h6.28a2.32,2.32,0,0,0,.46,0s.58-.1.73-.4a3.82,3.82,0,0,0,.21-1c0-.13,0-.33,0-.46V92.32a.23.23,0,0,1,.23-.23h3.18a.23.23,0,0,1,.24.23V95a3.55,3.55,0,0,0,0,.46A5.33,5.33,0,0,0,68,97.3c.4.56,2,.8,2,.8a3.71,3.71,0,0,0,.47,0h.33a3.44,3.44,0,0,0,.46,0s.59-.1.74-.38a4.13,4.13,0,0,0,.2-1c0-.13,0-.33,0-.46V91.07a.23.23,0,0,1,.23-.24h3.18a.24.24,0,0,1,.24.24V95a3.55,3.55,0,0,0,0,.46,5.33,5.33,0,0,0,.58,1.88c.4.56,2,.8,2,.8a3.44,3.44,0,0,0,.46,0h3a.23.23,0,0,0,.23-.23V89.34a.23.23,0,0,1,.23-.23Z"/><path class="cls-1" d="M95.2,101.85a.23.23,0,0,1-.23-.23V98.37a.23.23,0,0,1,.23-.23h8.28a.23.23,0,0,0,.23-.24V95.13c0-.12,0-.33,0-.46a7.74,7.74,0,0,0-.24-1.53,2.29,2.29,0,0,0-.75-1,2.72,2.72,0,0,0-1.21-.52c-.49-.08-1.39-.12-1.39-.12H97a.23.23,0,0,1-.23-.23V88.12a.24.24,0,0,1,.23-.23h3.85a20.68,20.68,0,0,1,2.31.25,5.23,5.23,0,0,1,2.18,1,5,5,0,0,1,1.5,2,15.21,15.21,0,0,1,.54,3.19c0,.13,0,.34,0,.47v6.77a.23.23,0,0,1-.23.23Z"/><path class="cls-1" d="M117.48,101.85l-.46,0a15,15,0,0,1-3.11-.54,6.15,6.15,0,0,1-2.21-1.47,5.64,5.64,0,0,1-1.24-2.07,7.54,7.54,0,0,1-.38-2.34,8.31,8.31,0,0,1,.5-2.86A7.47,7.47,0,0,1,112,90.16a6.53,6.53,0,0,1,2.14-1.61,6.3,6.3,0,0,1,2.76-.59,6.64,6.64,0,0,1,2.54.46,5.5,5.5,0,0,1,1.94,1.31,6,6,0,0,1,1.23,2A12,12,0,0,1,123,94.1c0,.12,0,.33,0,.46v6.58a3.62,3.62,0,0,1,0,.46,15,15,0,0,1-.58,3.21,5.85,5.85,0,0,1-1.72,2.31,7.3,7.3,0,0,1-2.62,1.29,12.59,12.59,0,0,1-3.35.42c-.45,0-.94,0-1.49,0s-1.58-.18-1.58-.18a.24.24,0,0,1-.21-.26l.22-3.12a.21.21,0,0,1,.25-.2s1,.12,1.55.16,1,.06,1.42.06a10.2,10.2,0,0,0,1.7-.13,3.93,3.93,0,0,0,1.41-.49,3,3,0,0,0,1-1,5.62,5.62,0,0,0,.41-1.51.19.19,0,0,0-.19-.23Zm1.68-3.71a.24.24,0,0,0,.24-.24V95.52c0-.13,0-.34,0-.46a7.7,7.7,0,0,0-.69-2.57,2.34,2.34,0,0,0-2-1,2.63,2.63,0,0,0-1.1.24,3.24,3.24,0,0,0-1.65,1.71,3.57,3.57,0,0,0-.25,1.38,3.65,3.65,0,0,0,.28,1.52,2.87,2.87,0,0,0,.77,1,3,3,0,0,0,1.12.58,6.49,6.49,0,0,0,1.08.16l.47,0Z"/><path class="cls-1" d="M148.35,101.83c-.11,0-.15,0-.09,0l.35,0Z"/><path class="cls-1" d="M163.57,94.57c0,.13,0,.34,0,.47v6.58a.23.23,0,0,1-.23.23H148.51a2.41,2.41,0,0,1-.35,0,3.26,3.26,0,0,1-1.58-.63,9.47,9.47,0,0,1-1.25-1.29.17.17,0,0,0-.28,0,5.42,5.42,0,0,1-1.46,1.43,8,8,0,0,1-2,.5,3.67,3.67,0,0,1-.46,0h-16a.23.23,0,0,1-.23-.23V98.37a.23.23,0,0,1,.23-.24h7.73a.23.23,0,0,0,.23-.23V85.15a.23.23,0,0,1,.23-.23h3.19a.23.23,0,0,1,.23.23V97.9a.23.23,0,0,0,.23.23h4a2.32,2.32,0,0,0,.46,0s.59-.1.74-.4a3.67,3.67,0,0,0,.2-1c0-.12,0-.33,0-.46V79.16a.23.23,0,0,1,.23-.23h3.22a.23.23,0,0,1,.23.23V95a3.44,3.44,0,0,0,0,.46,5.61,5.61,0,0,0,.56,1.88c.4.56,2,.8,2,.8a3.44,3.44,0,0,0,.46,0h10.67a.23.23,0,0,0,.23-.23V95.33c0-.13,0-.34,0-.47a6.86,6.86,0,0,0-.29-1.57,2.42,2.42,0,0,0-.82-1,2.72,2.72,0,0,0-1.2-.41c-.46-.06-1.22-.08-1.22-.08h-3.88a.23.23,0,0,1-.23-.24V88.79a.89.89,0,0,1,.12-.42l6-9.47a.23.23,0,0,1,.32-.07l2.62,1.76a.25.25,0,0,1,.06.33l-4.64,7.13c-.07.11-.05.19,0,.19l.39,0a17.37,17.37,0,0,1,2.27.27,5,5,0,0,1,3.6,3A13.93,13.93,0,0,1,163.57,94.57Z"/></g></g></svg>