<svg xmlns="http://www.w3.org/2000/svg" viewBox="0 0 300.29 115.71"><defs><style>.cls-1{fill:#fff;}</style></defs><g id="Layer_2" data-name="Layer 2"><g id="Layer_1-2" data-name="Layer 1"><path class="cls-1" d="M23.3,0a8.08,8.08,0,0,1,1.56,1.53c.61.76,1.25,1.47,1.91,2.18s1.3,1.4,1.93,2.12c1.14,1.3,2.32,2.56,3.49,3.82l.79.86c.81.87,1.61,1.73,2.46,2.55q.41.42.78.87c.93,1.05,1.94,2,2.93,3l.65.64,1.35,1.34,1.72,1.7L44.2,22l.64.63c1.48,1.47,1.48,1.47,3,2.86.49.42.93.89,1.39,1.35s.95.87,1.44,1.29c.71.63,1.4,1.28,2.09,1.93s1.39,1.28,2.11,1.89l1.14,1c.59.54,1.2,1,1.83,1.55s1.29,1.07,1.91,1.64,1.54,1.34,2.34,2c.58.47,1.15,1,1.73,1.45.8.69,1.61,1.36,2.45,2l1.09.87c1.31,1.07,2.65,2.12,4,3.14.75.56,1.5,1.14,2.24,1.72q3.73,2.93,7.6,5.67c.38.26.75.53,1.12.8,3.08,2.22,6.21,4.36,9.38,6.45l.38.25,1.08.72.33.21a13.15,13.15,0,0,0,1.3.78,1.9,1.9,0,0,1,.81,1.36l.09.32c.1.35.19.71.29,1.07l.21.75c.19.68.38,1.35.56,2s.38,1.39.58,2.09c.31,1.1.61,2.2.91,3.3.36,1.31.73,2.62,1.1,3.93l.15.52c.09.33.18.65.28,1l.6,2.15.1.34c.22.78.42,1.56.61,2.34a58.42,58.42,0,0,1-6.48-.28l-.5,0C78.54,81.62,63.1,78.67,40.4,71.68l-1.09-.37c-5.1-1.73-10.11-3.7-15-5.83l-.34-.14c-1.8-.77-1.8-.77-2-1,0-.34,0-.69,0-1v-1a7.69,7.69,0,0,1,2,.65l.7.31.38.16c5.65,2.46,11.42,4.62,17.26,6.58l.39.13C58.19,75.36,74.34,78.81,95.44,81c-1.13-.22-2.25-.43-3.38-.61A226.9,226.9,0,0,1,59.8,72.88l-1.37-.42A201.6,201.6,0,0,1,22.09,57.51V55.29a11.17,11.17,0,0,1,1.78.7l.42.21.46.23,1,.49.52.26c3.63,1.83,7.29,3.54,11,5.13l.39.16c5.49,2.33,11,4.41,16.69,6.34l.36.12a221.85,221.85,0,0,0,40.2,9.64l-.51-.11a255,255,0,0,1-28.47-7.81l-1.09-.37C60.9,68.94,57,67.46,53.15,65.9l-.36-.14c-5.44-2.2-10.76-4.65-16-7.22l-.56-.27c-2.32-1.13-4.6-2.31-6.86-3.55l-1.41-.78-1.25-.68-.89-.48-1.63-.91-.55-.3c-1.3-.74-1.3-.74-1.53-1.54l.06-.64.06-.64.06-.48q2,1.06,3.94,2.16c3.32,1.85,6.66,3.65,10,5.37l.33.17q5.79,2.94,11.75,5.5l1,.43c4.94,2.15,10,4.1,15.05,5.88l.41.15a231.7,231.7,0,0,0,27.72,7.9c-1-.33-2-.64-3-.94A263,263,0,0,1,58.85,63.68l-.67-.3C53.36,61.25,48.55,59,43.9,56.54l-1.46-.78c-2.22-1.17-4.41-2.39-6.59-3.66-.79-.46-1.59-.92-2.4-1.37-1.72-1-3.4-2-5.06-3-.47-.3-.94-.6-1.42-.89l-1-.64-.46-.29-.89-.57-.94-.57c-1.19-.75-1.19-.75-1.4-1.55l.06-.63,0-.64.07-.49a7.51,7.51,0,0,1,1.62.83l.44.29.46.32c1.73,1.15,3.47,2.27,5.24,3.36l.55.33c2.67,1.64,5.37,3.21,8.13,4.71l1.26.7c5.61,3.12,11.32,6,17.18,8.66l1,.44a230.3,230.3,0,0,0,33,12l-.44-.15c-6.34-2.22-12.58-4.66-18.71-7.38l-.68-.3q-5.25-2.33-10.39-4.85L60.16,60q-3.49-1.71-6.88-3.57l-1.41-.76c-2.36-1.26-4.69-2.59-7-4l-.55-.32c-2.37-1.4-4.72-2.82-7-4.3l-.39-.24c-1.72-1.1-3.44-2.21-5.14-3.35l-.38-.26c-1.63-1.1-3.26-2.2-4.85-3.37a22.38,22.38,0,0,0-2-1.33c-2-1.18-2-1.18-2.19-1.89a5.59,5.59,0,0,1,.28-2.22c.84.53,1.66,1.1,2.46,1.7,1.13.85,2.27,1.68,3.44,2.49l.45.31C30.5,40,32.06,41,33.62,42.07L35,43q2.68,1.8,5.47,3.44c.71.41,1.42.85,2.12,1.29,5.8,3.62,11.86,6.85,18,9.94l.35.17c3.7,1.88,7.42,3.66,11.22,5.33l1,.43c5.12,2.25,10.33,4.32,15.59,6.22q-2.1-1-4.23-1.92c-5.71-2.52-11.39-5.15-16.86-8.15-.92-.5-1.85-1-2.78-1.48-2.25-1.18-4.46-2.42-6.65-3.71l-1.79-1c-2.41-1.39-4.8-2.82-7.15-4.33l-1.15-.74c-3.89-2.47-7.72-5-11.46-7.72l-1.35-1c-1.54-1.08-3-2.21-4.54-3.35l-2-1.48c-1.23-.9-2.42-1.83-3.59-2.81a15.23,15.23,0,0,0-2-1.42,1.72,1.72,0,0,1-.59-.61,10,10,0,0,1,0-2.57,7.85,7.85,0,0,1,1.76,1.15l.31.25c.84.66,1.66,1.34,2.48,2,1.14.94,2.31,1.84,3.51,2.72q1,.77,2.07,1.56,2.2,1.68,4.48,3.26l1.4,1c2,1.37,3.93,2.71,5.92,4l.49.33c2.29,1.53,4.58,3,6.94,4.45l1.36.83A248.22,248.22,0,0,0,87,66.59l-.38-.19c-2.62-1.29-5.22-2.6-7.78-4l-1.48-.79c-2.27-1.21-4.5-2.46-6.71-3.76l-1.82-1.05c-2.24-1.29-4.46-2.6-6.64-4L61,52.05c-2.2-1.36-4.35-2.79-6.5-4.23L54,47.53Q50.29,45,46.62,42.39l-.39-.28L45,41.25l-.4-.29c-1.77-1.27-3.5-2.58-5.22-3.91-.63-.49-1.27-1-1.91-1.45-1.21-.91-2.38-1.85-3.53-2.82-.45-.38-.9-.75-1.36-1.11-.77-.61-1.52-1.23-2.26-1.86s-1.21-1-1.82-1.49c-.81-.66-1.58-1.35-2.35-2.05-.48-.43-1-.83-1.48-1.24l-.47-.38a5,5,0,0,0-.77-.58,1.76,1.76,0,0,1-.69-.79,15.75,15.75,0,0,1,0-2.57,5,5,0,0,1,1.45,1c.71.65,1.44,1.28,2.17,1.9s1.42,1.21,2.11,1.83,1.46,1.26,2.21,1.86c.59.48,1.16,1,1.74,1.46.8.69,1.61,1.36,2.45,2l1.09.88c1.26,1,2.53,2,3.84,3,.88.64,1.74,1.3,2.59,2,1.41,1.09,2.84,2.13,4.29,3.16l1.18.84.4.29c.25.17.49.35.73.53,2.46,1.76,5,3.42,7.51,5.09l.49.32a306,306,0,0,0,27.36,16c-1.16-.77-2.35-1.46-3.57-2.14-1.87-1-3.69-2.17-5.51-3.31-.43-.28-.87-.55-1.31-.82q-2.91-1.81-5.74-3.7l-1.4-.93c-2.36-1.56-4.71-3.12-7-4.77l-.79-.57-.38-.28-1.27-.9c-2.68-1.89-5.3-3.84-7.89-5.86L48.86,39c-2-1.54-4-3.12-5.91-4.7l-.84-.67c-1.18-.95-2.33-1.93-3.48-2.91l-1-.8c-1-.9-2.1-1.8-3.12-2.72l-1.08-.94c-1.43-1.24-2.82-2.51-4.21-3.78l-.85-.76c-1-.94-2-1.88-3-2.87-.47-.46-1-.89-1.47-1.31l-.31-.27L23.26,17a2.56,2.56,0,0,1-.35-1.9v-.42l0-1a28.94,28.94,0,0,1,2.24,2.05c.66.67,1.34,1.31,2.07,1.92s1.18,1.13,1.75,1.71,1,.92,1.52,1.37c.71.62,1.4,1.27,2.09,1.92s1.39,1.28,2.1,1.89l1.14,1c.76.67,1.54,1.31,2.33,1.95.45.37.89.76,1.33,1.15.73.66,1.49,1.29,2.26,1.9l1.63,1.36c.94.79,1.88,1.55,2.84,2.3l.27.22L48,35.63l1.22.95c4.45,3.48,9,6.81,13.67,10l.86.6q3.69,2.56,7.49,5l.52.33q3.08,2,6.21,3.89l.55.35.54.32.46.28c.68.4,1.37.78,2.07,1.16l-.26-.17-2.75-1.84-1-.68c-2.13-1.42-4.24-2.85-6.32-4.33l-.47-.33-1.07-.76-.38-.27c-2.59-1.87-5.16-3.76-7.7-5.7l-1-.77c-1.13-.86-2.24-1.74-3.34-2.63q-1.12-.91-2.28-1.8c-1-.76-1.94-1.55-2.89-2.35-.48-.41-1-.81-1.46-1.2-1.09-.88-2.15-1.81-3.22-2.73l-1-.85c-1.15-1-2.29-2-3.4-3-.48-.45-1-.88-1.46-1.3-.89-.77-1.75-1.57-2.62-2.37l-1-.89c-1.1-1-2.19-2-3.24-3.1-.34-.33-.68-.64-1-.94-.76-.66-1.47-1.34-2.17-2l-.39-.39-.82-.81-1.23-1.22-.8-.79-.37-.37q-1-1-2-2.1c-.46-.51-1-1-1.45-1.47C23.15,10,23.15,10,23.09,9.43V7.86c0-.34,0-.68,0-1a23.12,23.12,0,0,1,2.38,2.26c.83.9,1.67,1.78,2.56,2.63.33.34.64.68,1,1,.61.71,1.26,1.37,1.93,2l.36.36.74.73L33.18,17l.73.72.33.33c.65.65,1.33,1.27,2,1.86s1.23,1.17,1.82,1.78,1.27,1.21,1.94,1.78,1.47,1.35,2.19,2,1.43,1.32,2.17,1.95l1.14,1c.59.53,1.2,1,1.82,1.54s1.36,1.13,2,1.73,1.6,1.42,2.44,2.09c.54.43,1.06.87,1.58,1.31.86.73,1.73,1.42,2.62,2.11s1.61,1.27,2.4,1.93c1,.86,2.11,1.68,3.2,2.48.86.64,1.72,1.3,2.57,2,1.59,1.24,3.22,2.43,4.86,3.61l.38.28c3.11,2.25,6.28,4.41,9.46,6.57a14.41,14.41,0,0,0-2.23-1.82l-.9-.65-.44-.32c-.79-.57-1.57-1.17-2.34-1.77l-1-.79c-1.4-1.07-2.78-2.15-4.15-3.26-.73-.6-1.47-1.18-2.22-1.76-.94-.72-1.84-1.47-2.73-2.24-.6-.51-1.2-1-1.81-1.5-1-.79-1.94-1.61-2.89-2.44l-1.28-1.09Q55,34.92,53.31,33.32c-.39-.36-.79-.71-1.19-1-.9-.78-1.76-1.58-2.64-2.38-.29-.28-.59-.55-.9-.82-.86-.8-1.73-1.59-2.55-2.42-.28-.28-.58-.53-.88-.78-1.09-.94-2.1-2-3.12-3l-.67-.66L40,20.83l-1.78-1.77L36.8,17.69,36.14,17a34.76,34.76,0,0,1-3-3.09c-.32-.36-.66-.69-1-1-.59-.56-1.13-1.16-1.67-1.77S29.45,10,28.91,9.41c-.76-.79-1.51-1.6-2.23-2.43l-1-1.13C25.09,5.23,24.53,4.6,24,4L23.6,3.5a2.94,2.94,0,0,1-.4-2.34L23.25.5ZM79.21,54.26l.18.34.34-.17Zm.52.34.17.35.35-.17Zm2.42,4.28.17.35.35-.18ZM89.22,70l.35.34.52-.17Zm4.15,6,.69.17ZM96,78.74l.69.17Zm1.56,2.4v.17h1v-.17Z"/><path class="cls-1" d="M0,92.6l.41.05Q17.66,94.59,35,95.53l1.11.06,5.48.27.52,0c6.64.28,13.27.37,19.91.36H64.6c5.91,0,11.82,0,17.72-.38l.36,0c1.36-.08,2.72-.18,4.08-.29l.55,0c5.08-.4,10.16-1,15.19-1.82a4.32,4.32,0,0,1,.88-.05c-.9,2-3,3.72-4.59,5.28l-.28.27a41.25,41.25,0,0,1-3.76,3.35l-.58.49a92.43,92.43,0,0,1-18.93,12l-.46.32a3.63,3.63,0,0,1-2.47-.32l-1.06-.33-1.17-.37-1-.31-1-.33-3.7-1.16-.37-.12q-6-1.89-12-3.72l-.35-.1c-13.55-4.1-27.14-8.2-48.76-13.13L.52,95A5.72,5.72,0,0,1,0,92.6Z"/><path class="cls-1" d="M21.92,69.15l.44.16c3.86,1.37,7.73,2.7,11.64,4l.38.13c15.75,5,32.26,8,59.79,9.88,2.32,0,4.64.11,7,.26.42,1.22.79,2.44,1.16,3.67l.16.57.16.53.15.49a2,2,0,0,1,.1.73C87.51,91.41,72.14,92,21.57,85.24v-2c1.63.25,3.22.59,4.82,1a210.59,210.59,0,0,0,46.49,5.1h1.53a236.21,236.21,0,0,0,24.65-1.42l-.38,0a243.9,243.9,0,0,1-25.51-.19l-.49,0a224.56,224.56,0,0,1-51.11-9.38l.18-2.06c1.2.29,2.39.6,3.58,1A220.06,220.06,0,0,0,55.92,83.7l.43.06c4.39.62,8.8,1.09,13.23,1.45l1.44.11c5.4.44,10.78.48,16.2.48h.52c5.41,0,5.41,0,10.8-.21h-.31C80.35,85,62.8,83.06,21.75,71.38,21.72,69.54,21.72,69.54,21.92,69.15Zm78.52,18.32v.17h1.21v-.17Z"/><path class="cls-1" d="M291.66,69.67a23.68,23.68,0,0,1,.91,7.15v1.39a23.49,23.49,0,0,1-.39,4.81L290,83h-.75c-3.55,0-3.55,0-5-1.05l-.41-.3-.28-.21-.32.47a4.08,4.08,0,0,1-2.91,1.31,4.71,4.71,0,0,1-3.33-.75,8.38,8.38,0,0,1-.86-1l-.29.39a3.16,3.16,0,0,1-2,1.15c-.39,0-.78,0-1.17,0H247.37c-2.4,0-4.6-.16-6.4-1.89l-.22-.23-.17.28a3.73,3.73,0,0,1-2,1.67,19.85,19.85,0,0,1-4.22.11v.41a7.09,7.09,0,0,1-1.86,5.09,6.87,6.87,0,0,1-5.19,1.29,18,18,0,0,1-2.08-.29l.17-2.22.53.08a19.59,19.59,0,0,0,2.17.13l.65,0a3,3,0,0,0,2-1c1.13-1.72.86-4,.88-6,0-.29,0-.58,0-.87,0-.76,0-1.52,0-2.27l0-2.33.06-4.55h2.58V81c2.37,0,2.37,0,4.2-1.07a5.45,5.45,0,0,0,.7-2.88,7.38,7.38,0,0,1,1.83-5l.28-.28a7.18,7.18,0,0,1,5.25-1.64,5.78,5.78,0,0,1,4,1.58,6,6,0,0,1,1.24,4.15v.44c0,.46,0,.93,0,1.39s0,.63,0,1c0,.77,0,1.54,0,2.31h6V70.52h2.59V81h6.22V70.52h2.58V81c3.72.13,3.72.13,5.18-.68a3.53,3.53,0,0,0,.73-2.23V76.77l0-1.41c0-.32,0-.64,0-1l.06-2.34h2.58v.58c0,.7,0,1.41.05,2.12,0,.3,0,.61,0,.91s0,.88,0,1.33v.4a4.74,4.74,0,0,0,.93,3.39,3.37,3.37,0,0,0,2.28,0,3.29,3.29,0,0,0,1.26-2.06,15.57,15.57,0,0,0,.14-2.16v-.48l0-1.51c0-.34,0-.69,0-1l.06-2.51h2.58v.73c0,.91,0,1.82,0,2.72,0,.39,0,.78,0,1.18l0,1.69v.52a3.91,3.91,0,0,0,.61,2.4,6.59,6.59,0,0,0,2.82.61l.55,0,.42,0c0-.89,0-1.78,0-2.67,0-.3,0-.6,0-.9a29.6,29.6,0,0,0-.49-6c-.09-.45-.16-.91-.24-1.36l.81-.17.46-.1A6.46,6.46,0,0,1,291.66,69.67Zm-48.2,3.44a4.59,4.59,0,0,0-1.51,3.3,4.75,4.75,0,0,0,1.5,3.65,6.4,6.4,0,0,0,4.22.94h.5c.41,0,.81,0,1.21,0,0-.67,0-1.35,0-2,0-.34,0-.68,0-1,0-2,0-3.56-1.43-5A3.81,3.81,0,0,0,243.46,73.11Z"/><path class="cls-1" d="M235.88,93.61h4.52c1,3.05,2.06,6.1,3.06,9.16l.27.8q.81,2.46,1.51,4.93l.08-.32c.8-3.11,1.76-6.14,2.8-9.18.16-.47.32-1,.47-1.42s.31-.91.47-1.36.21-.65.32-1l.2-.58.17-.51c.15-.38.15-.38.32-.55l1.11,0h3.89l.08.5.75,4.72.45,2.9.3,1.88c.08.47.15.94.22,1.41l.75,4.69c.07.45.15.9.22,1.35s.14.84.2,1.26c0,.25.09.51.13.76l.11.67a8,8,0,0,1,.07,1.43h-4.48c-.81-4.84-1.53-9.7-2.25-14.55l-.07.28c-.73,2.92-1.62,5.77-2.56,8.63-.14.44-.28.87-.43,1.31-.47,1.44-.94,2.89-1.43,4.33h-4.31c-2.38-6.83-2.38-6.83-3.31-9.8l-.18-.58c-.4-1.26-.71-2.54-1-3.83a4,4,0,0,0-.31,1.42l0,.33c0,.37-.08.73-.13,1.1l-.09.76c-.07.68-.15,1.35-.23,2-.13,1.08-.25,2.15-.38,3.22L237,111c-.17,1.42-.37,2.83-.6,4.24h-4.31c.12-2.23.49-4.42.83-6.63.06-.43.13-.85.19-1.28.15-1,.31-2,.46-3l.42-2.74c.15-1,.3-2,.46-3,.06-.42.13-.85.19-1.27l.27-1.75L235,95l.08-.48.06-.42C235.27,93.61,235.33,93.63,235.88,93.61Z"/><path class="cls-1" d="M282.17,93.63h5.69c1,1.54,1,1.54,1.4,2.3l.29.51.3.54c.21.38.43.76.64,1.15l.33.58c.49.87,1,1.74,1.49,2.61.67,1.19,1.35,2.37,2,3.56l.2.34c.58,1,1.09,2.08,1.63,3.13V93.63h4.14V115.2h-5.7c-.82-1.33-1.62-2.63-2.36-4s-1.47-2.68-2.23-4l-.56-1-.28-.47-1.22-2.16-.21-.36c-.47-.84-.85-1.68-1.25-2.57V115.2h-4.31Z"/><path class="cls-1" d="M227.29,95.69c2.26,2.35,2.82,5.28,2.83,8.42v.6a11.67,11.67,0,0,1-1.21,5.38l-.18.34a10.09,10.09,0,0,1-5.92,4.85,12.39,12.39,0,0,1-9.08-1,9,9,0,0,1-3.86-5.64c-.75-3.47-.62-7.46,1.33-10.54a10.83,10.83,0,0,1,7.24-4.76C221.69,93,224.79,93.51,227.29,95.69Zm-11.56,3.42a9.14,9.14,0,0,0-1.56,6.67,8.59,8.59,0,0,0,1.38,3.94l.3.47a5.7,5.7,0,0,0,4,1.6,6,6,0,0,0,4-1.73,10.07,10.07,0,0,0,1.61-7.4,6.69,6.69,0,0,0-2.28-4.47A5.58,5.58,0,0,0,215.73,99.11Z"/><path class="cls-1" d="M135.65,64.36h2.59V81a8.35,8.35,0,0,0,4-.68,4.38,4.38,0,0,0,.93-2.68c.19-2.58.46-4.42,2.52-6.22a8.18,8.18,0,0,1,5.88-1.12A4.92,4.92,0,0,1,155,72.41a8.49,8.49,0,0,1,.9,4.41V81l6.39-.17-1.21-1a2.73,2.73,0,0,1-.41-.72l-.16-.34a7.31,7.31,0,0,1,.16-5.21,7.5,7.5,0,0,1,1.44-1.78l.4-.38a8.62,8.62,0,0,1,6.61-.92,8.85,8.85,0,0,1,1.1.27c.25.5.08.78-.07,1.31l-.15.52-.12.4-.52-.11-.7-.15-.34-.07a5.36,5.36,0,0,0-3,0l-.38.13a2.3,2.3,0,0,0-1.23.77l-.17.41-.28.61a4.75,4.75,0,0,0,0,3.46,5.06,5.06,0,0,0,3.18,2.43,23.17,23.17,0,0,0,5.52.51V83l-8.94,0H150.49a8.09,8.09,0,0,1-5.35-1.6l-.39-.29-.3-.23-.11.38a3,3,0,0,1-1.27,1.34c-2.38.67-4.95.34-7.42.34ZM147,73.43a5,5,0,0,0-1,3.85,3.83,3.83,0,0,0,1.5,2.91,7.34,7.34,0,0,0,4.1.81h.5c.4,0,.8,0,1.2,0l0-2.17c0-.24,0-.49,0-.74.05-2.63.05-2.63-1.07-5A3.92,3.92,0,0,0,147,73.43Z"/><path class="cls-1" d="M201.23,71.55a5.41,5.41,0,0,1,1.42,3.83c0,.84,0,1.69,0,2.54,0,.29,0,.59,0,.89,0,.72,0,1.43,0,2.15l4.49-.17-.87-1.37a8.37,8.37,0,0,1,.1-5.69,6.65,6.65,0,0,1,3.66-3.2,8.4,8.4,0,0,1,6.32.52,5.52,5.52,0,0,1,2,3.58V83H200l-.17-7.88c-.45-1.54-.45-1.54-1.56-2.39-1.35-.56-2.67-.27-4.14-.17V83l-3.47,0-1.08,0c-2.88,0-5.85-.21-8-2.28-1.74-2.11-1.89-4.56-1.72-7.19a10.63,10.63,0,0,1,.52-2l.1-.38c.41-.51,1-.51,1.64-.6l.4-.07,1-.15-.1.35c-.75,2.68-1.35,5.52.08,8.09a5.33,5.33,0,0,0,3.42,1.86c1.62.21,3.26.24,4.89.31V70.69C194.82,70,198.57,69.49,201.23,71.55Zm8.45,1.71a5.08,5.08,0,0,0-1.25,3.81,4.39,4.39,0,0,0,1.43,3,6.31,6.31,0,0,0,3.25.87h2.62l0-2.39c0-.27,0-.54,0-.81,0-1.81.06-3.39-1.19-4.84A4.1,4.1,0,0,0,209.68,73.26Z"/><path class="cls-1" d="M267.63,93.61h4.53c1,2.6,1.9,5.21,2.82,7.82.31.86.61,1.73.92,2.59l.11.33c.56,1.57,1.12,3.15,1.69,4.72l.2.58c.33.91.66,1.82,1,2.73.12.32.24.65.35,1l.16.44c.36,1,.36,1,.36,1.39h-4.83l-.69-2-.22-.61-.17-.48-.17-.5a1.61,1.61,0,0,1-.13-.74h-8.11l-.17.86c-.09.28-.19.55-.29.83l-.14.41-.19.52-.59,1.66h-4.49c2.08-6.25,4.25-12.48,6.45-18.69.08-.25.17-.5.26-.75l.36-1,.19-.55C267.05,93.64,267.05,93.64,267.63,93.61Zm1.77,5-.09.29c-.67,2.24-1.39,4.46-2.18,6.66l-.2.55-.17.48a1.53,1.53,0,0,0-.12.92h5.69a24.4,24.4,0,0,0-.82-3l-.13-.38c-.14-.41-.29-.81-.43-1.21l-.42-1.21-.27-.75c-.28-.79-.49-1.58-.69-2.39Z"/><path class="cls-1" d="M139,99.72a5,5,0,0,1,1.68,3,28.46,28.46,0,0,1,.07,2.92v.83c0,.73,0,1.45,0,2.18s0,1.48,0,2.22c0,1.45,0,2.9,0,4.35h-4.31v-1l0-3.36c0-.67,0-1.35,0-2s0-1.3,0-2c0-.25,0-.5,0-.75s0-.69,0-1v-.61a2.51,2.51,0,0,0-.58-1.38,1.92,1.92,0,0,0-1.63-.25,3.06,3.06,0,0,0-2.07,1.52,5.68,5.68,0,0,0-.82,2.7v1.75c0,.64,0,1.28,0,1.93,0,.43,0,.86,0,1.3,0,1.07,0,2.13,0,3.2h-4.32V99.28h4l.18,2,.42-.54A6.55,6.55,0,0,1,139,99.72Z"/><path class="cls-1" d="M172.29,100.24a6.51,6.51,0,0,1,2.19,4.18,12.81,12.81,0,0,1-.17,3.76h-9.84a4.56,4.56,0,0,0,1.53,3.29c2.24,1.18,4.67.58,7-.07l.45-.14a24.69,24.69,0,0,1,.52,3.43l-1.23.33-.35.09c-2.88.77-6.34.9-9-.48a6.91,6.91,0,0,1-3.06-4.46,11.58,11.58,0,0,1,1.63-8.63C164.23,98.47,169.25,98.26,172.29,100.24Zm-7.18,3.11a4.38,4.38,0,0,0-.64,1.92h5.69a3,3,0,0,0-.69-2.57A3.15,3.15,0,0,0,165.11,103.35Z"/><path class="cls-1" d="M142.72,99.28h4.66c2.68,7.67,2.68,7.67,3.46,10.61H151l.15-.58c.51-2,1.09-3.94,1.72-5.89.16-.48.31-1,.46-1.43l.3-.91.13-.43a6.21,6.21,0,0,1,.52-1.37h4.48a14.48,14.48,0,0,1-.6,2.35l-.14.43-.16.45-.17.48c-.17.52-.35,1-.53,1.55-.13.36-.25.72-.37,1.08q-1.67,4.8-3.38,9.58h-5.17c-.78-1.93-.78-1.93-1-2.6l-.16-.47-.17-.48-.18-.53-.57-1.67-.39-1.15Q144.23,103.8,142.72,99.28Z"/><path class="cls-1" d="M196.74,93.46v5.82h3.8v3.42h-3.8l.06,3.48c0,.39,0,.78,0,1.18l0,1.7v1.47a2.28,2.28,0,0,0,.39,1.07,3.68,3.68,0,0,0,1.75.19h1.36c0,.44.11.88.17,1.32l.05.38a14.06,14.06,0,0,1,.12,1.72,13.72,13.72,0,0,1-3.44.41h-.48a5.29,5.29,0,0,1-3.58-1.12,9.05,9.05,0,0,1-.83-4.63v-.62c0-.65,0-1.3,0-2,0-.44,0-.89,0-1.33l0-3.26h-2.76V99.28h2.76V94.49L194.1,94l.52-.16.42-.12.42-.14A4.28,4.28,0,0,1,196.74,93.46Z"/><path class="cls-1" d="M186.9,99.28a19.51,19.51,0,0,1-.17,3.42l-.4-.07a6.25,6.25,0,0,0-4.43.24,2.09,2.09,0,0,0-.17,1.37,4.39,4.39,0,0,0,2.27,1.34c1.73.69,3.14,1.37,3.94,3.11a5.38,5.38,0,0,1-.35,3.94,5.71,5.71,0,0,1-3.63,2.68,12,12,0,0,1-3.23.29h-.56a8,8,0,0,1-2.76-.4,27.12,27.12,0,0,1,.17-3.6l.51.12c2.56.58,2.56.58,5-.12.4-.49.4-.49.34-1.1-.22-.79-.49-.89-1.21-1.29-.43-.18-.85-.36-1.29-.52A6,6,0,0,1,177.4,106a5.41,5.41,0,0,1,0-3.88,5.54,5.54,0,0,1,3-2.66A12.78,12.78,0,0,1,186.9,99.28Z"/><path class="cls-1" d="M118,93.63h4.32V115.2H118Z"/><path class="cls-1" d="M128.23,70.52H131c0,1.53,0,3,0,4.57v2.13c0,.68,0,1.37,0,2v.78c0,2.63-.09,5.13-1.79,7.27-1.54,1.55-3.58,1.82-5.67,1.86a6.76,6.76,0,0,1-4.62-1.74c-1.55-1.67-1.82-3.71-1.81-5.89V81a18.48,18.48,0,0,1,.57-4.32,9.72,9.72,0,0,1,2.06-.45l.4,0,.3,0A14.93,14.93,0,0,1,120.2,78c-.48,2.42-.67,5.29.67,7.48a3.22,3.22,0,0,0,2,1.32,4.06,4.06,0,0,0,5.25-4.62c0-.54,0-1.08,0-1.62,0-.29,0-.58,0-.87,0-.76,0-1.52,0-2.27s0-1.55,0-2.33C128.21,73.56,128.22,72,128.23,70.52Z"/><path class="cls-1" d="M297,64.36h2.59V83H297Z"/><path class="cls-1" d="M164.44,59.1a2.06,2.06,0,0,1,1,1.63,2.34,2.34,0,0,1-.81,1.65,4,4,0,0,1-1.91.75l-.44.1c-1,.24-2.09.46-3.15.62l-.35-1.37.65-.17.36-.1a4,4,0,0,1,1.06-.07l-.11-.53a2.65,2.65,0,0,1,.46-1.87A2.82,2.82,0,0,1,164.44,59.1Zm-2.21,1.5a7.88,7.88,0,0,0,0,1.19,2.06,2.06,0,0,0,1.72-.85l-.34-.69A1.4,1.4,0,0,0,162.23,60.6Z"/><path class="cls-1" d="M213.31,65.05a1.6,1.6,0,0,1,.6,1.27,1.67,1.67,0,0,1-.43,1.11,2.07,2.07,0,0,1-1.9.35,1.68,1.68,0,0,1-.85-1.27,1.72,1.72,0,0,1,.51-1.46A1.91,1.91,0,0,1,213.31,65.05Z"/><path class="cls-1" d="M124.6,70.18a1.73,1.73,0,0,1,.94,1.19,3.25,3.25,0,0,1-.25,1.45,2.33,2.33,0,0,1-1.72.44,1.68,1.68,0,0,1-1-.85c-.12-1.2-.12-1.2.36-1.89A1.88,1.88,0,0,1,124.6,70.18Z"/><path class="cls-1" d="M257.49,65.39a1.67,1.67,0,0,1,.69.68,3,3,0,0,1-.17,1.79,2.41,2.41,0,0,1-1.73.44,1.62,1.62,0,0,1-1-.86c-.1-1.23-.1-1.23.31-1.78A1.92,1.92,0,0,1,257.49,65.39Z"/><path class="cls-1" d="M270.26,65.39a2.28,2.28,0,0,1,.69.85,3.14,3.14,0,0,1-.17,1.61,2.36,2.36,0,0,1-1.73.45,1.64,1.64,0,0,1-1-.86c-.1-1.23-.1-1.23.31-1.78A1.94,1.94,0,0,1,270.26,65.39Z"/><path class="cls-1" d="M191.39,85.42a1.71,1.71,0,0,1,.85,1.27,1.78,1.78,0,0,1-.5,1.46,2.85,2.85,0,0,1-1.73.18,1.57,1.57,0,0,1-.34-2.57A2.06,2.06,0,0,1,191.39,85.42Z"/><path class="cls-1" d="M266.29,65.39a1.67,1.67,0,0,1,.69.68,2,2,0,0,1-.37,1.89,1.7,1.7,0,0,1-1,.43,2.33,2.33,0,0,1-1.38-.78,2.08,2.08,0,0,1-.17-1.37A1.69,1.69,0,0,1,266.29,65.39Z"/><path class="cls-1" d="M261.46,65.39a1.93,1.93,0,0,1,.78,1.37,2.3,2.3,0,0,1-.78,1.37,2.18,2.18,0,0,1-1.38.17,1.83,1.83,0,0,1-.94-1.2,1.78,1.78,0,0,1,.4-1.44A1.86,1.86,0,0,1,261.46,65.39Z"/><path class="cls-1" d="M186.82,85.31a1.81,1.81,0,0,1,1.46,1A2.34,2.34,0,0,1,188,88a2,2,0,0,1-1.63.44c-.37-.08-.37-.08-.81-.44a2.39,2.39,0,0,1-.25-1.7A1.84,1.84,0,0,1,186.82,85.31Z"/><path class="cls-1" d="M259.39,62.31a1.79,1.79,0,0,1,.77,1.46,1.5,1.5,0,0,1-.37,1,2.08,2.08,0,0,1-1.26.45,2.34,2.34,0,0,1-1.21-.69,2.72,2.72,0,0,1,.26-2A2.29,2.29,0,0,1,259.39,62.31Z"/></g></g></svg>