<svg xmlns="http://www.w3.org/2000/svg" viewBox="0 0 314.91 120.26"><defs><style>.cls-1{fill:#fff;}</style></defs><g id="Layer_2" data-name="Layer 2"><g id="Layer_1-2" data-name="Layer 1"><path class="cls-1" d="M30.91,8.51A80.12,80.12,0,0,1,26,17.14C19.48,28.07,18.2,39.68,20.6,52.08,25,67.58,33.69,77.56,47.43,85.64a145.43,145.43,0,0,0,55.48,16.87c-2.94,7.33-11.72,11.17-18.6,14.18-18.06,6.21-38.77,4-55.9-4-12.5-6.83-20.72-17.64-25-31.19-5.34-19.38-4.75-42.9,4.25-61.12C10.78,15.19,15,9.91,20.88,7.81,24.33,7.31,27.48,8,30.91,8.51Z"/><path class="cls-1" d="M199.91,7.51l1,38c2.34,1.17,3.72,1.13,6.32,1.13H246c2,0,2,0,3.94-1.13.5-1.87.93-3.78,1.31-5.68,1.43-6.06,3-10,8.45-13.44,4.81-1.88,10.18-1.38,15.24-.88,5.41,2.47,8.6,6.39,10.75,11.94a65.26,65.26,0,0,1,.25,9.06c1.6.06,3.21.1,4.81.13l2.71.07c2.73,0,2.73,0,5.48-2.2a13,13,0,0,0,.51-4.57l.11-2.71.07-2.84.1-2.86q.12-3.51.21-7a20.16,20.16,0,0,1,7.69-1.06l2.44,0,1.87,0c.11,3.88.19,7.75.25,11.63l.1,3.32c.09,7.72-.69,11.06-5.89,16.73-5.59,4.06-10.73,3.45-17.31,3.16-4.41-.11-4.41-.11-8.46,1.45q-1.59,1.61-3.1,3.3c-2.7,2.39-5.59,2.44-9.09,2.59A20,20,0,0,1,256.19,61c-1.28-1.52-1.28-1.52-1.28-3.52l-2,1c-1.68.12-3.37.17-5.06.2l-3.2,0q-7.26.06-14.52.1-3.84,0-7.66.09c-3.68,0-7.36.07-11,.09l-3.43.07c-7,0-11.76-.93-17.09-5.6-4.38-5.51-4.15-12-4.1-18.8V32.52q0-3.45,0-6.88c0-1.56,0-3.13,0-4.69q0-5.71,0-11.44A35.94,35.94,0,0,1,199.91,7.51Zm65,28c-2.58,4.34-2.56,9.11-2,14,.9,3.1.9,3.1,3,5,3,.67,3,.67,6,0,2.35-3.53,2.33-5.24,2.37-9.43l.09-3.44c-.55-3.72-1.5-4.88-4.46-7.13C267.7,34.41,267.7,34.41,264.91,35.51Z"/><path class="cls-1" d="M247,72.64c3.93,1.09,6.11.34,9.94-1.13a21.58,21.58,0,0,1,14,3c3.78,4.59,4.48,7.71,4.39,13.59l0,2.13c0,2.22-.07,4.44-.12,6.66l-.06,4.54c0,3.7-.11,7.39-.19,11.08h-11l-1-29-8-1v30h-11l-1-30h-9v30h-11q-.19-7.37-.28-14.73c0-1.67-.06-3.34-.1-5-.06-2.4-.09-4.81-.11-7.21l-.08-2.26c0-3.87.22-5.43,3-8.24A26.71,26.71,0,0,1,247,72.64Z"/><path class="cls-1" d="M80.91.51C86.56,3,89.83,7.05,92.23,12.64c2.91,8.06,2.14,15.38-.91,23.25A21.65,21.65,0,0,1,78.91,46.51c-5.88.6-9.31,0-14.18-3.44-5.58-4.75-8.19-10.36-9.08-17.65-.4-7.44,2.14-13.69,6.2-19.84C67.49-.07,73.22-.69,80.91.51Z"/><path class="cls-1" d="M306.91,74.51c3.42,3.52,4.92,6.29,5.06,11.17L311.9,88l0,2.53c-.05,1.75-.1,3.51-.16,5.26l0,2.52-.07,2.31.33,1.9,3,2a16.87,16.87,0,0,1-3,8l-2.05-.25-2.7-.31-2.67-.31a18.76,18.76,0,0,0-6.58.87c-5.72.54-10.09.28-15-3-3-2.83-3.7-5.86-4.06-10,.1-3.31,1.19-5.34,3.06-8,5.85-4.46,12-4.13,19-4l-1-4c-5.64-1.07-10.31-.78-16,0l-1-10C291.6,71.34,298.66,69.92,306.91,74.51Zm-17,24c.4,2.79.4,2.79,2,5,4.65.31,4.65.31,9-1v-6q-2.19-.08-4.38-.12l-2.46-.07C291.69,96.3,291.69,96.3,289.91,98.51Z"/><path class="cls-1" d="M211.91,74.51c3.54,3.66,4.12,7.15,4.1,12.11v3l0,3.1v3.14q0,3.84-.05,7.67l4,1a30.9,30.9,0,0,1-3,8l-2.3-.25-3-.31-3-.31c-2.8-.29-2.8-.29-5.7.87-6.85.73-11.45.17-17-4-2.59-4.16-2.8-8.23-2-13,1.81-3.83,4.34-5.72,8.25-7.37a61.11,61.11,0,0,1,12.75-.63l-2-5-14,1-2-9C195.36,70.89,203.59,70.08,211.91,74.51Zm-17,23a24.57,24.57,0,0,0,0,5c1.17,1.4,1.17,1.4,4.44,1.13,3.4.13,3.4.13,5.56-1.13v-6l-4.44-.06-2.5,0C195.92,96.28,195.92,96.28,194.91,97.51Z"/><path class="cls-1" d="M174.91,74.51c4.47,4.82,5.12,7.48,5.1,14v2.08c0,2.19,0,4.38,0,6.57,0,1.48,0,3,0,4.45q0,5.46-.05,10.92h-11l-.08-2.55q-.14-4.68-.29-9.35c0-1.35-.09-2.71-.13-4.06-.06-1.94-.12-3.87-.19-5.81l-.11-3.54c.1-2.6.1-2.6-1.2-3.69l-9-1v30h-11q-.12-7.4-.17-14.78,0-2.52-.06-5,0-3.61-.06-7.23l-.05-2.27c0-5.2,0-5.2,1.72-7.61A25.82,25.82,0,0,1,174.91,74.51Z"/><path class="cls-1" d="M123.91,67.51c-2.54,10.87-7.86,18.52-17,25-9.43,4.18-20.6,2.47-30-1-5.44-2.33-10.71-4.84-15-9v-2l2.49-.29c5.42-.73,10.26-1.4,15.2-3.83,5.49-2.45,10.67-2,16.55-1.88C106.28,74.71,115.26,67.51,123.91,67.51Z"/><path class="cls-1" d="M167.35,23.33l3.43,0a13.46,13.46,0,0,1,7.13,2.23l-2,8-2.27-.1-3-.08-3-.11c-3.17.33-4.46,1.18-6.79,3.29a27.25,27.25,0,0,0,1,6c3.53,2.36,6.58,2.66,10.69,3.13l2.12.26,5.19.61c1.31,4.16.34,6.89-1,11l-2.42-.28a69.63,69.63,0,0,0-22.58,1.28l-5,1a25.91,25.91,0,0,1-2-10l5-1-1-1.66c-1.87-4.27-1.56-8.77-1-13.34C153.86,25.62,158.8,23.38,167.35,23.33Z"/><path class="cls-1" d="M124.91,33.51h2c.75,19.34.75,19.34-5.31,26.88l-2.69,2.12-2.63,2.13a39.82,39.82,0,0,1-22.37,4.87l-1-3,1.57-1.21c3.92-3.2,6.7-5.86,8.87-10.47s4.74-5.7,9.42-7.44c5.52-2.26,8.21-7.35,11-12.3Z"/><path class="cls-1" d="M103.91,7.51c4.65-.37,8-.46,12.31,1.63,4,3.52,6.2,6.61,7.63,11.75.1,5.93-1.51,10-5.38,14.44l-2.56,2.18-2.13,1.88-1.87,1.12-3-1,.48-2.14a41.58,41.58,0,0,0-4.17-28Z"/><path class="cls-1" d="M307.91,7.51a10.39,10.39,0,0,1,4,4c.45,3.18.53,5.07-1.06,7.88-3.05,1.77-5.51,1.49-8.94,1.12-1.94-1.06-1.94-1.06-3-3-.64-5.91-.64-5.91,1.12-8.93C302.84,7,304.74,7.06,307.91,7.51Z"/></g></g></svg>