<svg xmlns="http://www.w3.org/2000/svg" viewBox="0 0 113.75 115.01"><defs><style>.cls-1{fill:#4c8448;}.cls-2{fill:#76ac50;}</style></defs><g id="Layer_2" data-name="Layer 2"><g id="Layer_1-2" data-name="Layer 1"><path class="cls-1" d="M25.06,64.75a6.18,6.18,0,1,1-6.17,6.17,6.19,6.19,0,0,1,6.17-6.17"/><path class="cls-1" d="M51,41.53V99.05a58.1,58.1,0,0,0-10.68-7c-4.79-2.47-7.31-4.5-8.62-5.91a16.6,16.6,0,1,0-11.47.68c1.43,5.17,6.44,9.92,15.3,14.5C46.4,106.94,49.9,112.9,50.87,115H19.07A19.07,19.07,0,0,1,0,95.94V19.07A19.07,19.07,0,0,1,19.07,0H51V10a16.58,16.58,0,0,0,0,31.5"/><path class="cls-1" d="M57.51,19.74V31.8a5.24,5.24,0,0,1-1.26.15h0a6.17,6.17,0,1,1,0-12.34h0a5.79,5.79,0,0,1,1.26.13"/><path class="cls-2" d="M62.42,25.78a6.17,6.17,0,0,1-4.91,6,5.24,5.24,0,0,1-1.26.15V19.61a5.79,5.79,0,0,1,1.26.13,6.18,6.18,0,0,1,4.91,6"/><path class="cls-2" d="M87.42,68.58a6.17,6.17,0,1,1,6.17-6.17,6.19,6.19,0,0,1-6.17,6.17"/><path class="cls-2" d="M113.75,19.07V95.94A19.07,19.07,0,0,1,94.67,115H61.45V107c.59-1.57,3.72-8.07,15.48-14.15,8.86-4.6,13.87-9.33,15.31-14.51a16.64,16.64,0,1,0-11.47-.69c-1.32,1.42-3.84,3.46-8.62,5.93a58.15,58.15,0,0,0-10.7,7v-49a16.58,16.58,0,0,0,0-31.5V0H94.67a19.07,19.07,0,0,1,19.08,19.07"/></g></g></svg>