<svg xmlns="http://www.w3.org/2000/svg" viewBox="0 0 393.61 115.01"><defs><style>.cls-1{fill:#4c8448;}.cls-2{fill:#76ac50;}.cls-3{fill:#fff;}</style></defs><g id="Layer_2" data-name="Layer 2"><g id="Layer_1-2" data-name="Layer 1"><path class="cls-1" d="M25.06,64.75a6.18,6.18,0,1,1-6.17,6.17,6.19,6.19,0,0,1,6.17-6.17"/><path class="cls-1" d="M51,41.53V99.05a58.1,58.1,0,0,0-10.68-7c-4.79-2.47-7.31-4.5-8.62-5.91a16.6,16.6,0,1,0-11.47.68c1.43,5.17,6.44,9.92,15.3,14.5C46.4,106.94,49.9,112.9,50.87,115H19.07A19.07,19.07,0,0,1,0,95.94V19.07A19.07,19.07,0,0,1,19.07,0H51V10a16.58,16.58,0,0,0,0,31.5"/><path class="cls-1" d="M57.51,19.74V31.8a5.24,5.24,0,0,1-1.26.15h0a6.17,6.17,0,1,1,0-12.34h0a5.79,5.79,0,0,1,1.26.13"/><path class="cls-2" d="M62.42,25.78a6.17,6.17,0,0,1-4.91,6,5.24,5.24,0,0,1-1.26.15V19.61a5.79,5.79,0,0,1,1.26.13,6.18,6.18,0,0,1,4.91,6"/><path class="cls-2" d="M87.42,68.58a6.17,6.17,0,1,1,6.17-6.17,6.19,6.19,0,0,1-6.17,6.17"/><path class="cls-2" d="M113.75,19.07V95.94A19.07,19.07,0,0,1,94.67,115H61.45V107c.59-1.57,3.72-8.07,15.48-14.15,8.86-4.6,13.87-9.33,15.31-14.51a16.64,16.64,0,1,0-11.47-.69c-1.32,1.42-3.84,3.46-8.62,5.93a58.15,58.15,0,0,0-10.7,7v-49a16.58,16.58,0,0,0,0-31.5V0H94.67a19.07,19.07,0,0,1,19.08,19.07"/><path class="cls-3" d="M157.76,62.26a24.47,24.47,0,0,1-9.71-1.87A15.92,15.92,0,0,1,141.17,55a14.61,14.61,0,0,1-2.5-8.66,14.09,14.09,0,0,1,2.5-8.6,15.24,15.24,0,0,1,6.88-5.11,26.61,26.61,0,0,1,9.81-1.72h17.21V27.11a11.46,11.46,0,0,0-3.18-8.55q-3.18-3.13-9.44-3.13t-9.59,3A14.14,14.14,0,0,0,149,24a2.79,2.79,0,0,1-3.43,1.58l-2.33-.76A2.8,2.8,0,0,1,141.5,21a22.75,22.75,0,0,1,2.91-4.87,19.4,19.4,0,0,1,7.25-5.63,25.28,25.28,0,0,1,10.9-2.15q9.8,0,15.22,5.07t5.43,14.23V50.68q0,3.14,2.92,3.13H188a2.79,2.79,0,0,1,2.78,2.79V58A2.79,2.79,0,0,1,188,60.81h-4.41a7.84,7.84,0,0,1-5.53-1.93A6.71,6.71,0,0,1,176,53.71v-.52h-1.25a25.14,25.14,0,0,1-3.08,4.12,14.61,14.61,0,0,1-5.26,3.55,22.76,22.76,0,0,1-8.66,1.4m.94-7.09q7.29,0,11.83-4.33t4.54-12.15V37.54H158.18a14.26,14.26,0,0,0-8.09,2.14,7.23,7.23,0,0,0-3.18,6.42,7.79,7.79,0,0,0,3.28,6.67,14.1,14.1,0,0,0,8.51,2.4"/><path class="cls-3" d="M212.62,62.26q-9.48,0-16-4.38a17.87,17.87,0,0,1-7.32-11,2.81,2.81,0,0,1,2.08-3.44l2.46-.56a2.8,2.8,0,0,1,3.3,2,14.75,14.75,0,0,0,2.56,5.29,12.51,12.51,0,0,0,5.68,4.07,21.58,21.58,0,0,0,7.25,1.2c3.83,0,6.85-.76,9.08-2.3A7.12,7.12,0,0,0,225,46.93a5.74,5.74,0,0,0-3.18-5.58,33.6,33.6,0,0,0-8.71-2.66L208.87,38a37.85,37.85,0,0,1-9-2.61,16.42,16.42,0,0,1-6.47-4.8,11.84,11.84,0,0,1-2.4-7.61,12.5,12.5,0,0,1,5.32-10.74q5.33-3.87,14.08-3.86t14,3.91a17.06,17.06,0,0,1,6.07,8.06A2.78,2.78,0,0,1,228.6,24l-2.22.57a2.79,2.79,0,0,1-3.33-1.86,9.51,9.51,0,0,0-3.86-5.22,16.1,16.1,0,0,0-8.76-2.24,15.29,15.29,0,0,0-8.24,1.93,6.33,6.33,0,0,0-3,5.68A5.81,5.81,0,0,0,202,28.21a22.22,22.22,0,0,0,7.66,2.55l4.28.73a54.59,54.59,0,0,1,9.75,2.56,16.23,16.23,0,0,1,6.89,4.64,11.89,11.89,0,0,1,2.55,7.93q0,7.5-5.58,11.58t-15,4.06"/><path class="cls-3" d="M243.6,73.62V71.9a2.79,2.79,0,0,1,2.79-2.79h26.42c2,0,3-1,3-3.13V52.67h-1.46a15.69,15.69,0,0,1-8.76,7.77,24.65,24.65,0,0,1-8.66,1.3,21.84,21.84,0,0,1-10.17-2.4,17.55,17.55,0,0,1-7.3-7.09,23,23,0,0,1-2.66-11.47V12.58a2.78,2.78,0,0,1,2.79-2.78h2.67a2.78,2.78,0,0,1,2.78,2.78V40.15q0,7.51,3.81,11t10.27,3.44a16.05,16.05,0,0,0,12-4.79q4.69-4.8,4.69-14.29V12.58a2.78,2.78,0,0,1,2.79-2.78h2.67a2.78,2.78,0,0,1,2.78,2.78V67.44A9,9,0,0,1,281.73,74q-2.36,2.4-6.84,2.4h-28.5a2.79,2.79,0,0,1-2.79-2.79"/><path class="cls-3" d="M291.69,58V12.58a2.78,2.78,0,0,1,2.79-2.78h2.45a2.78,2.78,0,0,1,2.79,2.78v5.87h1.46a17.39,17.39,0,0,1,5.68-6.62q4-3,11.84-3A21.66,21.66,0,0,1,329,11.26a18,18,0,0,1,7.25,7.09,22.91,22.91,0,0,1,2.71,11.58V58a2.78,2.78,0,0,1-2.79,2.78h-2.66A2.78,2.78,0,0,1,330.7,58V30.55q0-7.6-3.81-11t-10.27-3.44a16,16,0,0,0-12.05,4.8q-4.63,4.79-4.64,14.29V58a2.78,2.78,0,0,1-2.79,2.78h-2.66A2.78,2.78,0,0,1,291.69,58"/><path class="cls-3" d="M369.5,62.26a27.55,27.55,0,0,1-13.3-3.18A23.19,23.19,0,0,1,346.92,50a28,28,0,0,1-3.39-14.09V34.73a27.9,27.9,0,0,1,3.39-14.14,23.26,23.26,0,0,1,9.28-9.07,27.55,27.55,0,0,1,13.3-3.18A26.45,26.45,0,0,1,382,11.05a21.53,21.53,0,0,1,8.14,7.2,24.48,24.48,0,0,1,3.13,6.63,2.79,2.79,0,0,1-2.11,3.54l-2.53.53a2.79,2.79,0,0,1-3.24-2,17.33,17.33,0,0,0-1.92-4.36,14.07,14.07,0,0,0-5.38-5,17.43,17.43,0,0,0-8.44-1.88,18.08,18.08,0,0,0-9.13,2.3,16.5,16.5,0,0,0-6.36,6.57,20.89,20.89,0,0,0-2.35,10.22v.94A20.89,20.89,0,0,0,354.12,46a16.43,16.43,0,0,0,6.36,6.57,18.08,18.08,0,0,0,9.13,2.3q7.61,0,11.63-4a16.85,16.85,0,0,0,4.39-7.33,2.78,2.78,0,0,1,3.25-1.89l2.53.55a2.8,2.8,0,0,1,2,3.67,28.61,28.61,0,0,1-3.29,6.47A21.89,21.89,0,0,1,382,59.55a26.45,26.45,0,0,1-12.46,2.71"/><path class="cls-3" d="M195.57,106.68a11.27,11.27,0,0,1-6.45-1.77,7.13,7.13,0,0,1-2.89-4.18A1.41,1.41,0,0,1,187.28,99l.42-.09a1.43,1.43,0,0,1,1.69.93,5.64,5.64,0,0,0,1,1.93,5.07,5.07,0,0,0,2.29,1.64,8.73,8.73,0,0,0,2.92.48,6.44,6.44,0,0,0,3.66-.92,2.89,2.89,0,0,0,1.34-2.48,2.31,2.31,0,0,0-1.28-2.25,13.34,13.34,0,0,0-3.51-1.07l-1.72-.3a15.14,15.14,0,0,1-3.62-1,6.76,6.76,0,0,1-2.61-1.93,4.83,4.83,0,0,1-1-3.07A5,5,0,0,1,189,86.5a11,11,0,0,1,11.33,0,6.89,6.89,0,0,1,2.3,2.87,1.41,1.41,0,0,1-.93,1.93l-.33.08a1.38,1.38,0,0,1-1.66-.81,3.75,3.75,0,0,0-1.5-2,6.52,6.52,0,0,0-3.53-.9,6.2,6.2,0,0,0-3.32.77,2.55,2.55,0,0,0-1.22,2.3A2.33,2.33,0,0,0,191.3,93a9,9,0,0,0,3.09,1l1.73.29a23.37,23.37,0,0,1,3.93,1,6.56,6.56,0,0,1,2.77,1.88,4.74,4.74,0,0,1,1,3.19A5.44,5.44,0,0,1,201.6,105a10,10,0,0,1-6,1.64"/><path class="cls-3" d="M218.44,106.67a11.2,11.2,0,0,1-5.49-1.3,9.23,9.23,0,0,1-3.7-3.68,11.35,11.35,0,0,1-1.32-5.61v-.54A11.35,11.35,0,0,1,209.25,90a9.15,9.15,0,0,1,3.7-3.7,12.14,12.14,0,0,1,11,0,9.09,9.09,0,0,1,3.7,3.7A11.36,11.36,0,0,1,229,95.54v.54a11.35,11.35,0,0,1-1.33,5.61,9.17,9.17,0,0,1-3.7,3.68,11.18,11.18,0,0,1-5.48,1.3m0-3a6.82,6.82,0,0,0,5.23-2.08,7.88,7.88,0,0,0,2-5.61v-.38a7.87,7.87,0,0,0-2-5.61,7.59,7.59,0,0,0-10.44,0,7.79,7.79,0,0,0-2,5.61V96a7.81,7.81,0,0,0,2,5.61,6.82,6.82,0,0,0,5.21,2.08"/><path class="cls-3" d="M234.41,104.69V71.05a1.39,1.39,0,0,1,1.39-1.39h.54a1.39,1.39,0,0,1,1.39,1.39v33.64a1.4,1.4,0,0,1-1.39,1.4h-.54a1.4,1.4,0,0,1-1.39-1.4"/><path class="cls-3" d="M252.07,106.46a8.82,8.82,0,0,1-4.1-1,7,7,0,0,1-2.94-2.88A9.31,9.31,0,0,1,244,98V86.92a1.39,1.39,0,0,1,1.39-1.39h.54a1.39,1.39,0,0,1,1.39,1.39v10.8c0,2,.51,3.53,1.54,4.46a6,6,0,0,0,4.14,1.38,6.46,6.46,0,0,0,4.83-1.93q1.89-1.93,1.89-5.76v-9a1.4,1.4,0,0,1,1.4-1.39h.53A1.39,1.39,0,0,1,263,86.92v17.77a1.4,1.4,0,0,1-1.39,1.4h-.45a1.4,1.4,0,0,1-1.39-1.4V102.6h-.59a7,7,0,0,1-2.31,2.67,8.07,8.07,0,0,1-4.79,1.19"/><path class="cls-3" d="M277,106.09a3.33,3.33,0,0,1-3.66-3.62v-14h-4.78A1.39,1.39,0,0,1,267.16,87v-.12a1.39,1.39,0,0,1,1.39-1.39h4.78V83.11a1.4,1.4,0,0,1,1.4-1.39h.53a1.4,1.4,0,0,1,1.4,1.39v2.42H282a1.39,1.39,0,0,1,1.39,1.39V87A1.39,1.39,0,0,1,282,88.43h-5.33V102c0,.84.4,1.26,1.22,1.26h3.18a1.4,1.4,0,0,1,1.4,1.39v.07a1.4,1.4,0,0,1-1.4,1.4Z"/><path class="cls-3" d="M289.94,82.34a2.51,2.51,0,0,1-1.83-.72,2.65,2.65,0,0,1,0-3.65,2.51,2.51,0,0,1,1.83-.72,2.45,2.45,0,0,1,1.81.72,2.7,2.7,0,0,1,0,3.65,2.45,2.45,0,0,1-1.81.72m-1.68,22.35V86.92a1.39,1.39,0,0,1,1.39-1.39h.54a1.39,1.39,0,0,1,1.39,1.39v17.77a1.4,1.4,0,0,1-1.39,1.4h-.54a1.4,1.4,0,0,1-1.39-1.4"/><path class="cls-3" d="M307.55,106.67a11.18,11.18,0,0,1-5.48-1.3,9.17,9.17,0,0,1-3.7-3.68,11.35,11.35,0,0,1-1.32-5.61v-.54A11.35,11.35,0,0,1,298.37,90a9.09,9.09,0,0,1,3.7-3.7,12.14,12.14,0,0,1,11,0,9.09,9.09,0,0,1,3.7,3.7,11.35,11.35,0,0,1,1.32,5.59v.54a11.35,11.35,0,0,1-1.32,5.61,9.17,9.17,0,0,1-3.7,3.68,11.2,11.2,0,0,1-5.49,1.3m0-3a6.85,6.85,0,0,0,5.24-2.08A7.88,7.88,0,0,0,314.74,96v-.38A7.87,7.87,0,0,0,312.79,90a7.6,7.6,0,0,0-10.45,0,7.83,7.83,0,0,0-2,5.61V96a7.85,7.85,0,0,0,2,5.61,6.85,6.85,0,0,0,5.21,2.08"/><path class="cls-3" d="M323.53,104.69V86.92a1.39,1.39,0,0,1,1.39-1.39h.45a1.4,1.4,0,0,1,1.4,1.39V89h.58a7,7,0,0,1,2.3-2.67,7.91,7.91,0,0,1,4.77-1.2,8.78,8.78,0,0,1,4.14,1A7.3,7.3,0,0,1,341.48,89a9.17,9.17,0,0,1,1.09,4.67v11a1.4,1.4,0,0,1-1.39,1.4h-.54a1.4,1.4,0,0,1-1.39-1.4V93.9q0-3.08-1.54-4.46a6,6,0,0,0-4.14-1.39A6.46,6.46,0,0,0,328.72,90q-1.87,1.94-1.87,5.76v8.94a1.4,1.4,0,0,1-1.39,1.4h-.54a1.4,1.4,0,0,1-1.39-1.4"/></g></g></svg>