<svg xmlns="http://www.w3.org/2000/svg" viewBox="0 0 513.03 513.06"><defs><style>.cls-1{fill:#76ac50;}</style></defs><g id="Layer_2" data-name="Layer 2"><g id="Layer_1-2" data-name="Layer 1"><path class="cls-1" d="M246.63,0H249l5,0c2.53,0,5.06,0,7.59,0h4.82l2.29,0c3.32.06,5.46.3,8.24,2.18,2,2.95,2.61,5.41,3.3,8.89l.78,3.79c.26,1.32.51,2.63.77,3.95l.81,4q1,4.88,1.94,9.76l11,3a223.91,223.91,0,0,0,16.81-18.44c2.19-2.56,2.19-2.56,4.19-3.56a19.94,19.94,0,0,1,13,2.88l3.3,1.85,3.38,1.95,3.41,1.9c9.72,5.52,9.72,5.52,12.9,10.42,1.08,7.46-3.19,15.78-5.74,22.62l-1,2.71-.9,2.43c-.51,2.83,0,3.86,1.6,6.24,1.63,1.7,3.29,3.37,5,5,5-1.28,10-2.63,14.86-4.32l2-.68,5.68-2c3.48-1,5.9-1.48,9.48-1,6.09,4.14,8.81,10,12.31,16.31.65,1.11,1.29,2.23,2,3.38l1.84,3.29,1.68,3c1.43,3.57,1.53,6.21,1.21,10-2.45,4.08-6.11,7-9.7,10-2.63,2.26-5.22,4.58-7.8,6.91l-2.59,2.34-1.91,1.73,3,11L386,132q4.62.92,9.23,1.86l4,.79c1.92.37,3.84.77,5.75,1.16l3.49.7a12.67,12.67,0,0,1,7,5c1.16,3.47,1.07,6.36,1,10l2.77-.08c3.4-.09,6.8-.15,10.2-.2,1.47,0,2.94-.06,4.41-.1,2.11-.06,4.23-.09,6.35-.11l3.86-.08c4.44.74,5.65,2,8.41,5.57a41.44,41.44,0,0,1,.6,8.15v2.48c0,2.73,0,5.47,0,8.2v5.88c0,5.33,0,10.65-.06,16,0,5.56,0,11.12,0,16.69q0,15.8-.11,31.61-.09,18-.11,36-.08,37-.25,74l1.71-.07c2.59-.08,5.19-.13,7.79-.18l2.69-.11c7.21-.1,12.17,1.58,17.9,5.95l1.54,1.55,1.8,1.78,1.84,1.89,2,2q2,2.06,4.07,4.12,3.1,3.15,6.24,6.28l4,4,1.88,1.89,1.74,1.78,1.53,1.55a14.19,14.19,0,0,1,3.6,10.14c0,.9,0,1.81,0,2.74v3l0,3.16c0,3.46,0,6.91,0,10.37q0,3.6,0,7.2,0,7.56,0,15.11,0,9.68.06,19.36,0,7.44,0,14.88c0,2.38,0,4.75,0,7.13q0,5,0,10c0,1,0,2,0,3,0,5.7-.66,9.06-4.52,13.56-4,3.49-6.27,5.12-11.53,5.14l-2.89,0h-3.18l-3.34,0-11,0-3.79,0-17.77,0q-10.26,0-20.51.07-8.88.06-17.77.05l-7.56,0c-3.52,0-7,0-10.57,0l-3.15,0c-6,0-9.38-.54-14-4.5-4.79-5.06-6.24-10.15-6.28-17l0-3.53v-3.77c0-1.29,0-2.58,0-3.91q0-4.08,0-8.16c0-3.48,0-7,0-10.44s0-6.66,0-10c0-1.25,0-2.49,0-3.78l0-3.52c0-1,0-2,0-3.08a15.19,15.19,0,0,1,3.38-7.8c2.85-1.43,4.83-1.31,8-1,3.17,2,4.77,3,5.64,6.72l0,3.15.06,3.57c0,1.91,0,1.91,0,3.85l0,3.95c0,3.46.05,6.92.06,10.38s0,7.07.08,10.6q.09,10.38.11,20.78c2.29,1.14,3.56,1.12,6.11,1.12h8.49l9.91,0h6.85l18.06,0,21.66,0,32.92,0,1-93h-21c-6.71-4.48-9.06-6.66-12-14v-18h-72c-.13,12.32-.13,12.32-.21,24.65,0,1.55-.05,3.09-.08,4.64v2.43c-.1,4-.32,5.85-3.07,8.79-3.24,1.82-5,2.11-8.65,1.49a16.55,16.55,0,0,1-5-6c-.12-2.69-.19-5.36-.2-8.05l0-2.43c0-1.7,0-3.4,0-5.1,0-2.58,0-5.17-.07-7.75,0-1.66,0-3.31,0-5l0-2.32c0-6.46,1.43-11.08,5.68-16.13,15.7-13.15,33.93-5.25,55.69-5.25v-188h-20v7a14,14,0,0,1-3,6,35,35,0,0,1-7.31,2.18l-2.13.47c-1.46.31-2.92.62-4.38.91-2.12.42-4.23.88-6.35,1.35q-4.9,1.07-9.83,2.09l-3,11A222.45,222.45,0,0,0,399,215.37c2.56,2.19,2.56,2.19,3.56,4.19a20,20,0,0,1-2.89,13l-1.84,3.29-2,3.38-1.9,3.42c-5.51,9.71-5.51,9.71-10.41,12.9-7.47,1.08-15.79-3.19-22.62-5.74l-2.71-1-2.43-.9c-2.84-.51-3.87,0-6.24,1.6-1.71,1.62-3.38,3.28-5,5,1.28,5,2.62,10,4.31,14.86l.69,2c.66,1.9,1.34,3.79,2,5.68,1,3.48,1.48,5.9,1,9.48-4.15,6.08-10,8.81-16.31,12.31l-3.38,1.95-3.3,1.85-3,1.68c-3.57,1.42-6.21,1.52-10,1.21-4.08-2.45-6.95-6.11-10-9.7-2.27-2.64-4.59-5.22-6.92-7.8l-2.34-2.6-1.72-1.9-11,3-.49,2.5q-.91,4.62-1.85,9.24c-.27,1.33-.54,2.66-.8,4q-.56,2.88-1.16,5.75l-.7,3.49a12.69,12.69,0,0,1-5,7c-3,1-3,1-10,1v36c6.22-.16,6.22-.16,12.44-.36l2.4,0,2.41-.07c7.54,1.25,12.76,5.86,18,11.13l2,1.94q2,2,4.05,4.07,3.09,3.09,6.21,6.14l4,4,1.87,1.83,1.74,1.78,1.52,1.52c4.41,6.33,4.89,12.59,4.84,20v2.92c0,3.16,0,6.33,0,9.49q0,3.31,0,6.64,0,6.93,0,13.87,0,8.88,0,17.76,0,6.84,0,13.69,0,3.27,0,6.54c0,3.06,0,6.11,0,9.16l0,2.71c-.07,6.38-.88,12.28-5.17,17.31L319,509l-1.82,1.44c-2.88,2-4.68,2.26-8.15,2.27l-2.89,0h-3.18l-3.34,0-11,0-3.79,0-17.77,0q-10.26,0-20.51.07-8.88.06-17.77.05l-7.56,0c-3.52,0-7,0-10.57,0l-3.15,0c-6,0-9.38-.54-14-4.5-6.52-6.89-6.3-14.14-6.28-23.12v-3.69c0-3.33,0-6.66,0-10,0-2.79,0-5.57,0-8.35q0-9.85,0-19.71,0-10.14,0-20.29,0-8.73,0-17.46,0-5.2,0-10.41,0-5.81,0-11.61l0-3.46c0-7.64.7-13.64,5.71-19.74,6.42-5.22,11.57-5.6,19.56-5.48l3.13,0c3.29,0,6.58.05,9.87.09l6.71,0c5.48,0,10.95.09,16.42.15v-36h-7a14.17,14.17,0,0,1-6-3,34.36,34.36,0,0,1-2.19-7.32l-.46-2.12c-.32-1.46-.62-2.92-.91-4.38q-.64-3.18-1.35-6.35c-.72-3.28-1.41-6.55-2.09-9.83l-11-3-7.25,7.68-2.07,2.19c-2.79,3-5.5,5.9-8,9.08-1.64,2.05-1.64,2.05-3.64,3.05a20,20,0,0,1-13-2.89l-3.3-1.85-3.38-1.95-3.41-1.9c-9.72-5.52-9.72-5.52-12.9-10.41-1.08-7.47,3.18-15.79,5.74-22.63.31-.89.63-1.79,1-2.71l.9-2.43c.5-2.83,0-3.86-1.6-6.23-1.63-1.71-3.29-3.38-5-5-5,1.28-10,2.62-14.86,4.31l-2,.69q-2.83,1-5.67,2c-3.48,1-5.9,1.48-9.48,1-5.19-2.94-7.38-7.72-10.06-12.82l-2.54-4.7-1.22-2.3c-1.1-2-2.27-4-3.46-6-2.06-3.78-2.35-5.91-1.72-10.15,2.45-4.09,6.11-7,9.69-10,2.64-2.27,5.23-4.59,7.81-6.92l2.59-2.34,1.91-1.72-3-11-2.51-.49q-4.62-.91-9.23-1.86l-4-.79c-1.92-.37-3.83-.77-5.75-1.16l-3.49-.7a12.72,12.72,0,0,1-7-5c-1-3-1-3-1-10h-20v188h20c7.88,3.37,7.88,3.37,10.59,6.06l1.85,1.8,1.92,1.93,2,2c1.41,1.41,2.82,2.81,4.22,4.23,2.13,2.15,4.29,4.27,6.45,6.39l4.11,4.12,1.94,1.9c8.18,8.35,8.4,16.68,8.33,28,0,2.27,0,4.53.06,6.8,0,1.45,0,2.9,0,4.35v4c-.58,4-1.62,5.66-4.5,8.47-3.69,1.25-5.27,1.34-8.81-.32-2.19-1.68-2.19-1.68-3.19-3.68-.09-2.11-.11-4.22-.1-6.32v-3.81l0-4c0-1.34,0-2.68,0-4,0-3.28,0-6.57.05-9.85l-1.74,0c-2.63.07-5.26.1-7.89.14l-2.73.08c-5.33.06-9.05-.24-13.64-3.26-8.71-8.92-7-16-7-29l-71,1c-1.24,2.47-1.12,4.1-1.12,6.87v3.12l0,3.43c0,1.19,0,2.38,0,3.61,0,3.27,0,6.54,0,9.8,0,3.42,0,6.83,0,10.25q0,9.69,0,19.4,0,11,0,22.08,0,22.72.05,45.44l39.79.05,18.48,0,17.82,0h24.07c1.94,0,1.94,0,3.84-1.12l0-3.25q.06-6,.18-11.92c0-1.71,0-3.43.06-5.15,0-2.47.07-4.95.12-7.42V465.5c.1-3.5.34-5.57,2.43-8.43,3.18-2.21,5.4-2,9.18-1.51,3.18,1.76,3.83,2.49,5,6,.12,2.63.19,5.24.2,7.88l0,2.35c0,1.65,0,3.29,0,4.93,0,2.5,0,5,.07,7.48,0,1.6,0,3.2,0,4.81l0,2.23c0,6-1.11,11.67-5.12,16.37L131,509l-1.82,1.44c-2.88,2-4.68,2.26-8.15,2.27l-2.89,0h-3.18l-3.34,0-11,0-3.79,0-17.77,0q-10.26,0-20.51.07-8.88.06-17.77.05l-7.56,0c-3.52,0-7,0-10.57,0l-3.15,0c-6,0-9.39-.53-14-4.5C1.72,504.26.39,502,.36,496.28l0-3.4c0-1.23,0-2.47,0-3.74s0-2.59,0-3.93q0-6.45,0-12.92c0-1.48,0-3,0-4.44q0-10.46,0-20.91,0-12-.08-24.11,0-9.33-.05-18.65,0-5.56,0-11.13,0-6.21,0-12.43c0-1.23,0-2.45,0-3.71,0-6.67.41-11,4.51-16.35,4.51-3.5,8-5.13,13.65-5.12H21l3.07,0h3.15l10,0,6.75,0q8.28,0,16.56.05l0-3.1q-.16-37.24-.24-74.48,0-18-.12-36-.08-15.69-.09-31.39c0-5.54,0-11.08-.06-16.62q0-7.83,0-15.64c0-1.92,0-3.84,0-5.75q0-3.92,0-7.84l0-2.3c.06-3.93.52-5.69,3-8.83,3.51-2.65,5.59-2.6,10-2.51l2.06,0c2.16,0,4.32.09,6.48.15l4.41.07q5.4.09,10.78.25l-.07-3.3c.08-4.23.58-6.28,3.07-9.7a34.45,34.45,0,0,1,7.31-2.19l2.13-.47,4.37-.91c2.13-.42,4.24-.88,6.36-1.34q4.91-1.08,9.83-2.09l3-11q-3.84-3.63-7.69-7.25l-2.18-2.07c-3-2.79-5.91-5.5-9.09-8-2-1.64-2-1.64-3-3.64a20,20,0,0,1,2.89-13l1.84-3.29,2-3.38c.94-1.69.94-1.69,1.89-3.42,5.52-9.71,5.52-9.71,10.42-12.89,7.46-1.09,15.79,3.18,22.62,5.73l2.71,1,2.43.9c2.83.5,3.87,0,6.24-1.6,1.7-1.63,3.38-3.29,5-5-1.28-5-2.62-10-4.31-14.86l-.69-2c-.66-1.89-1.34-3.78-2-5.67-1-3.51-1.57-5.88-1-9.48,3.57-4.63,8.37-7.24,13.37-10.07l2.21-1.27,4.34-2.48q2-1.15,4-2.37c4.3-2.56,7-3.56,12-2.81,4.08,2.44,7,6.1,10,9.69,2.27,2.64,4.59,5.22,6.92,7.81l2.34,2.59,1.72,1.91,11-3,.49-2.51q.9-4.62,1.85-9.24c.27-1.33.54-2.66.79-4,.38-1.92.77-3.83,1.17-5.75l.69-3.49C235.84.56,239.78,0,246.63,0Zm1.88,15.54-1.21,6c-.39,1.92-.79,3.85-1.19,5.77-.27,1.34-.55,2.68-.81,4-.39,1.92-.79,3.85-1.19,5.77l-.71,3.5c-.91,3-1.4,4.14-3.89,5.92a29.27,29.27,0,0,1-4.64,1.6l-2.75.79-2.86.79-2.82.83c-5.12,1.44-9.61,2.47-14.93,2-4.1-2.47-7-6.16-10.09-9.77-2.08-2.44-4.21-4.84-6.35-7.23L193,33.24l-1.5-1.68-2.34,1.27-3,1.66-3,1.66c-1.52.82-3.05,1.63-4.6,2.41a128.86,128.86,0,0,0,6,20.25c2.14,7.85,2.14,7.85,1,11.75a60.29,60.29,0,0,1-8.5,9.5l-2.4,2.49c-3.64,3.59-5.93,5.78-11,6.76-5.14-.62-10.05-2.5-14.89-4.25l-5.59-2-2.46-.89c-2.25-.79-2.25-.79-5.14-.64a34.46,34.46,0,0,0-3.69,6l-1.89,3.37-1.42,2.63A118.51,118.51,0,0,0,146,110.37c2.56,2.19,2.56,2.19,3.56,4.19.35,6.37-1.07,11.51-3,17.54a22.25,22.25,0,0,0-1.44,6.22c-.46,2.69-.84,4.13-2.59,6.24-4.84,2.14-9.83,3.05-15,4l-4.33.89c-3.55.75-7.1,1.43-10.67,2.11v16l6,1.2,5.78,1.19,4,.82c1.93.38,3.85.78,5.77,1.18l3.51.71c3,.91,4.14,1.4,5.91,3.9a28.58,28.58,0,0,1,1.6,4.64l.8,2.74.79,2.87.82,2.81c1.45,5.12,2.47,9.61,2,14.94-2.46,4.1-6.15,7-9.76,10.08-2.44,2.09-4.84,4.22-7.24,6.35l-2.31,2.06-1.69,1.51,1.28,2.33,1.66,3,1.65,3c.82,1.53,1.63,3.06,2.41,4.61a131,131,0,0,0,20.25-6c7.86-2.15,7.86-2.15,11.75-1a59.85,59.85,0,0,1,9.5,8.5l2.49,2.39c3.59,3.64,5.78,5.93,6.76,11-.61,5.15-2.5,10.06-4.25,14.9q-1,2.79-2,5.58l-.89,2.46c-.78,2.25-.78,2.25-.64,5.15a34.59,34.59,0,0,0,6,3.68l3.37,1.89,2.63,1.43a119,119,0,0,0,16.81-17.44c2.19-2.56,2.19-2.56,4.19-3.56,6.37-.35,11.52,1.07,17.55,3a22.11,22.11,0,0,0,6.21,1.44c2.69.46,4.13.85,6.24,2.6,2.15,4.84,3.05,9.82,4,15q.44,2.16.9,4.32c.75,3.55,1.42,7.11,2.1,10.68h16l1.21-6q.58-2.9,1.19-5.78l.81-4c.38-1.92.78-3.84,1.18-5.77l.72-3.5c.91-3,1.39-4.14,3.89-5.91a28.29,28.29,0,0,1,4.64-1.61l2.75-.79,2.86-.79,2.82-.83c5.12-1.44,9.6-2.47,14.93-2,4.1,2.46,7,6.15,10.08,9.76,2.09,2.44,4.22,4.84,6.36,7.24l2.05,2.31,1.51,1.69,2.33-1.28,3-1.66,3-1.65c1.52-.83,3-1.64,4.6-2.41a130.05,130.05,0,0,0-6-20.26c-2.14-7.85-2.14-7.85-1-11.74a59.42,59.42,0,0,1,8.5-9.5l2.4-2.5c3.63-3.58,5.93-5.78,11-6.75,5.14.61,10.05,2.49,14.89,4.25l5.58,2,2.47.89c2.25.79,2.25.79,5.14.65a35.23,35.23,0,0,0,3.69-6l1.88-3.38,1.43-2.62a118.07,118.07,0,0,0-17.44-16.82c-2.56-2.18-2.56-2.18-3.56-4.18-.35-6.38,1.07-11.52,3-17.55a20.63,20.63,0,0,0,1.4-6.22c.44-2.75.79-4.12,2.63-6.23A64.41,64.41,0,0,1,384.32,171c3.42-.61,6.8-1.39,10.19-2.14l6-1.25v-16l-6-1.21-5.78-1.19c-1.34-.28-2.67-.55-4-.81l-5.77-1.19-3.51-.71c-3-.91-4.14-1.4-5.91-3.89a30.29,30.29,0,0,1-1.61-4.64l-.79-2.75-.79-2.86-.82-2.82c-1.45-5.11-2.53-9.62-2-14.93a26.71,26.71,0,0,1,5-5q1.92-1.94,3.81-3.88c3.9-3.91,8-7.55,12.19-11.12l-1.28-2.34-1.66-3-1.65-3c-.83-1.52-1.64-3.06-2.41-4.6a130,130,0,0,0-20.26,6c-7.85,2.15-7.85,2.15-11.74,1a60.39,60.39,0,0,1-9.5-8.5l-2.49-2.4c-3.59-3.64-5.79-5.93-6.76-11,.61-5.14,2.49-10,4.25-14.9q1-2.79,2-5.58l.89-2.46c.78-2.25.78-2.25.64-5.14a34,34,0,0,0-6-3.69L325.13,33l-2.62-1.42A117.93,117.93,0,0,0,305.7,49c-2.59,3-3.22,3.49-7.14,3.8-5.14-.07-9.91-1.61-14.8-3L280.9,49l-2.75-.79-2.48-.71a9.86,9.86,0,0,1-5.16-3.89,47.62,47.62,0,0,1-1.61-6.42l-.79-3.8c-.26-1.32-.53-2.65-.79-4s-.55-2.67-.82-4q-1-4.89-2-9.8Zm-45,358a20.68,20.68,0,0,0-.26,4.85l0,3.11v7c0,3.26,0,6.52,0,9.78,0,2.72,0,5.44,0,8.15q0,9.63,0,19.24,0,9.93,0,19.87,0,8.52,0,17c0,3.39,0,6.79,0,10.18,0,3.78,0,7.57,0,11.35l0,3.43,0,3.11v2.71l.38,2.15c3.07,2,3.68,2.25,7.14,2.25l2.54,0,2.79,0,2.94,0h68.84c3.09,0,6.19,0,9.28,0l2.78,0,2.55,0h2.22c2.25-.15,2.25-.15,4.92-2.25a78.63,78.63,0,0,0,.34-8.68v-2.72c0-3,0-6-.05-8.92,0-2.06,0-4.12,0-6.18q0-8.15-.08-16.29,0-8.31,0-16.61-.06-16.31-.15-32.6l-1.83,0c-2.77-.06-5.53-.14-8.3-.22l-2.88-.05c-5.79-.2-9.44-.75-14-4.7-3.61-4.68-5-8.31-5.32-14.11l-.12-2.29-.12-2.35-.13-2.41c-.11-1.95-.21-3.89-.31-5.84q-13.83-.07-27.67-.11-6.42,0-12.85-.05l-12.39,0-4.73,0H208.44C205.39,371.25,205.39,371.25,203.51,373.56Z"/><path class="cls-1" d="M312.37,80.05c1.76,2.33,1.61,4.74,1.48,7.56-.34,2-.34,2-1.9,4.45-3.55,2.18-5.3,2.16-9.44,1.5-2.5-1.33-4.84-2.83-7.22-4.35C278,78.93,256.4,77.26,237.14,81.58a82,82,0,0,0-27.63,13l-2.78,2c-16.49,12.63-26.37,31.1-29.81,51.48-2.23,19,1.37,38.24,11.59,54.53l1.28-2.16c6.51-10.62,12.36-16.13,23.61-21.36a24.72,24.72,0,0,0,6.11-3.48l-1.17-1.66c-9-13.05-12.32-26.64-9.45-42.45,3.25-12.87,11.85-23.6,23.17-30.43,13.38-7,26.73-7.82,41.18-3.68C285.93,101.9,295.72,112,301.5,124a47.37,47.37,0,0,1,3.32,18.87v2.55c-.19,10.13-3.07,17.54-8.3,26.14l-1.66,2.76-1.34,2.24,2.34.88C309,182.6,318,190,324.51,202.56c11.42-20.83,15.12-42.78,9-66a75.61,75.61,0,0,0-8.31-18.44,19.53,19.53,0,0,1-3.32-7.88,11.93,11.93,0,0,1,4.63-7.68c5.4-1,5.4-1,8,0a49.82,49.82,0,0,1,9.06,13.56l1,2.12c10.95,22.85,12.11,49.55,3.95,73.48a99.4,99.4,0,0,1-49.88,55.84,100.43,100.43,0,0,1-76.36,3.31c-24.47-9.56-43.81-27.36-54.81-51.31-10.17-24.49-11.23-51.38-1.53-76.19,10-24.22,28.46-43.59,52.77-53.75C248.45,58.11,286.6,59.35,312.37,80.05ZM232.2,121.74c-6.51,7.89-8.41,15.23-8.07,25.42,1,8.82,4.86,15.46,11.38,21.4,8.71,6.62,17.19,7.93,28,7,7.76-1.7,13.84-6,19-12,5.84-9.41,7.69-18.81,5.42-29.8A35.39,35.39,0,0,0,270,113.49C256.17,108.07,242.53,110.93,232.2,121.74Zm-24.69,80.82a36.65,36.65,0,0,0-6,17c18.56,15,39,22.5,63,21,16.48-2,36.12-8.6,47-22,.54-6.68-3.87-13.14-8-18-8.87-8.57-18.72-9.47-30.62-9.44H269c-2.72,0-5.45,0-8.17,0-3.46,0-6.92,0-10.38,0s-6.69,0-10,0l-3.72,0C225.31,191.12,215.07,193.54,207.51,202.56Z"/><path class="cls-1" d="M230.77,420l3.85,0,4.14,0H243l8.91,0c3.81,0,7.62,0,11.42,0h13c2,0,3.92,0,5.88,0h3.39c3.55.62,4.74,1.64,6.88,4.51.47,3.75.53,6-1.31,9.37-3.12,3-6.35,2.76-10.46,2.79l-3.59,0h-3.88l-4,0-8.36,0c-3.56,0-7.12,0-10.69.05-3.4,0-6.81,0-10.21,0l-3.87,0h-6.78a14.92,14.92,0,0,1-7.86-3.36c-1.55-3.1-1.29-5.6-1-9C223.53,420.48,225.82,420.05,230.77,420Z"/><path class="cls-1" d="M418.77,420l3.85,0,4.14,0H431l8.91,0c3.81,0,7.62,0,11.42,0h13c2,0,3.92,0,5.88,0h3.39c3.55.62,4.74,1.64,6.88,4.51.47,3.75.53,6-1.31,9.37-3.12,3-6.35,2.76-10.46,2.79l-3.59,0h-3.88l-4,0-8.36,0c-3.56,0-7.12,0-10.69.05-3.4,0-6.81,0-10.21,0l-3.87,0h-6.78a14.26,14.26,0,0,1-8.86-4.36c-.59-7.24-.59-7.24,1.63-10.1C413.2,420,414.89,420.05,418.77,420Z"/><path class="cls-1" d="M42.77,420l3.85,0,4.14,0H55l8.91,0c3.81,0,7.62,0,11.42,0h13c2,0,3.92,0,5.88,0h3.39c3.52.62,4.7,1.72,6.88,4.51.71,2.9.34,4.94,0,8-1.81,2.67-2.88,2.95-6,4-1.92.1-3.85.14-5.77.16l-3.59,0H85.27l-4,0-8.36,0c-3.56,0-7.12,0-10.69.05-3.4,0-6.81,0-10.21,0l-3.87,0H41.37a14.92,14.92,0,0,1-7.86-3.36c-1.55-3.1-1.29-5.6-1-9C35.53,420.48,37.82,420.05,42.77,420Z"/><path class="cls-1" d="M419.69,452l3.71,0,4,0,4.12,0q4.29,0,8.6,0c3.67,0,7.34,0,11,0,2.83,0,5.65,0,8.48,0,2,0,4,0,6,0,10.12.1,10.12.1,13.22,3,2.21,3.56,2.42,5.57,1.67,9.69-2.6,2.64-4.28,3.87-8,4.5h-3.32l-3.78,0-4.06,0h-4.19c-2.92,0-5.84,0-8.76,0-3.73,0-7.47,0-11.21,0-2.88,0-5.76,0-8.64,0h-4.13c-1.93,0-3.86,0-5.78,0h-3.32c-3.5-.62-4.67-1.75-6.84-4.5a9.57,9.57,0,0,1-.56-4l-.07-2C409.6,453.09,414.58,452.05,419.69,452Z"/><path class="cls-1" d="M231.69,452l3.71,0,4,0h4.12l8.6,0c3.67,0,7.34,0,11,0h8.48l6,0,3.71,0h3.26c3.62.63,5.31,2,7.92,4.51a8,8,0,0,1,.62,4l0,2c-1,3.12-3,4.19-5.66,6a24.89,24.89,0,0,1-6.18.51l-3.71,0-4,0h-4.11c-2.87,0-5.73,0-8.6,0-3.67,0-7.34,0-11,0-2.83,0-5.66,0-8.49,0l-6,0-3.71,0h-3.26c-3.62-.63-5.31-2-7.92-4.5a7.92,7.92,0,0,1-.63-4l0-2C221.65,453.11,226.54,452.05,231.69,452Z"/><path class="cls-1" d="M51.38,451.93H55.5q4.29,0,8.6,0,5.5,0,11,0c2.83,0,5.65,0,8.48,0,2,0,4,0,6,0l3.71,0,3.26,0c3.61.64,5.31,2,7.92,4.52a8,8,0,0,1,.56,4v2c-.83,2.92-2.23,4.09-4.57,6a24.15,24.15,0,0,1-6.16.51l-3.77,0-4.07,0H82.33c-2.92,0-5.84,0-8.76,0-3.74,0-7.48,0-11.22,0-2.88,0-5.76,0-8.64,0H49.58c-1.93,0-3.86,0-5.78,0H40.47c-3.68-.63-5.36-1.86-8-4.5-.75-4.12-.55-6.13,1.67-9.69C38.68,450.68,45.66,451.87,51.38,451.93Z"/><path class="cls-1" d="M52.32,387.31l3.57-.07c10.94-.05,10.94-.05,15.62,3.32,1.54,3.09,1.29,5.59,1,9a12.31,12.31,0,0,1-4,4,33.12,33.12,0,0,1-7.25.53H59.15l-4.4,0c-2.23,0-4.47,0-6.71,0H43.76l-3.92,0c-3.33-.51-3.33-.51-5.75-2.33-2.31-3.19-2.13-5.34-1.58-9.18C37.53,386,44.78,387.34,52.32,387.31Z"/><path class="cls-1" d="M427.88,387.31l3.74-.07h3.6l3.29,0a14.43,14.43,0,0,1,8,3.36c2,3,2,3,1.81,6.5-1.07,4.6-1.07,4.6-3.81,6.5a41.38,41.38,0,0,1-7.15.43l-2.11,0h-4.42c-2.25,0-4.49,0-6.74.05h-8.24c-3.85-.58-5-1.43-7.34-4.5-.71-2.91-.34-4.95,0-8C412.58,385.55,421.53,387.33,427.88,387.31Z"/><path class="cls-1" d="M240.45,387.37l3.57,0h3.45l3.15,0a20.18,20.18,0,0,1,7.89,2.25c2.17,2.66,2,4.08,1.81,7.56-1.07,4.54-1.07,4.54-3.81,6.44a41.38,41.38,0,0,1-7.15.43l-2.11,0h-4.42c-2.25,0-4.49,0-6.74.05h-8.24c-3.34-.5-3.34-.5-5.77-2.32-2.28-3.17-2.05-5.37-1.57-9.18,1.3-2.49,2.06-3.69,4.74-4.6C230.24,387.06,235.39,387.37,240.45,387.37Z"/></g></g></svg>