<svg xmlns="http://www.w3.org/2000/svg" viewBox="0 0 2816 2285.68"><defs><style>.cls-1{fill:#76ac50;}</style></defs><g id="Layer_2" data-name="Layer 2"><g id="Layer_1-2" data-name="Layer 1"><path class="cls-1" d="M2089.07,1730.72c-19.08-119.84-118.11-222-258.71-266.86l-347.82-111-327,472.87-41-161.77c45-16.21,74.53-64.72,60.21-117.65-8.62-31.85-34.78-57.76-66.69-66.16-64.59-17-122.71,31.26-122.71,93.08a96.47,96.47,0,0,0,63.85,90.73l-41,161.77-327-472.87-347.82,111c-140.6,44.86-239.63,147-258.71,266.86l-71,340.92c-23,110.4,61.29,214,174.06,214H1986c112.77,0,197.05-103.64,174.06-214Z"/><path class="cls-1" d="M639,947.15c.14.86.41,1.77.56,2.64,10.09,58.17,34.52,123.32,69.9,185.9,80.79,142.92,218.47,272.09,372.42,272.09h0c153.95,0,291.64-129.17,372.42-272.1,35.38-62.57,59.8-127.72,69.9-185.89.15-.86.42-1.78.56-2.64l32.87-197c42-251.9-182.82-477.61-475.75-477.61h0C789,272.5,564.16,498.21,606.17,750.11Z"/><path class="cls-1" d="M2787.42,0H1293.59A28.59,28.59,0,0,0,1265,28.58v187a563.84,563.84,0,0,1,79.34,22.74V107.92a28.57,28.57,0,0,1,28.58-28.58H2708.08a28.57,28.57,0,0,1,28.58,28.58V883.79a28.58,28.58,0,0,1-28.58,28.58H2498.83a28.61,28.61,0,0,0-20.78,9l-202.13,214c-18.76,19.87-52,4.6-49.2-22.58l17.55-168.87a28.57,28.57,0,0,0-28.42-31.53H1623.92l-2.53,15.18c-.15.93-.44,1.91-.6,2.84-3.43,19.75-8.91,40.39-15.3,61.31h522.35a28.58,28.58,0,0,1,28.42,31.54l-32.67,314.26c-2.82,27.18,30.45,42.44,49.21,22.58l339.46-359.42a28.57,28.57,0,0,1,20.78-9h254.38A28.58,28.58,0,0,0,2816,963.12V28.58A28.59,28.59,0,0,0,2787.42,0Z"/><circle class="cls-1" cx="1830.75" cy="631.37" r="97.67"/><circle class="cls-1" cx="2154.79" cy="631.37" r="97.67"/><circle class="cls-1" cx="2478.82" cy="631.37" r="97.67"/></g></g></svg>