<svg xmlns="http://www.w3.org/2000/svg" viewBox="0 0 166.45 225"><defs><style>.cls-1{fill:#76ac50;}</style></defs><g id="Layer_2" data-name="Layer 2"><g id="Layer_1-2" data-name="Layer 1"><path class="cls-1" d="M11.3,0C36.67,9,61.62,18,86.59,27c20.61,7.4,41.26,14.72,61.87,22.12a26.66,26.66,0,0,1,6.34,2.83c9.66,6.76,14.86,14.95,6.45,26.79-4.27,6-9.2,10.73-16.43,13-8.36,2.69-16.56,5.91-24.84,8.88-.27.1-.64-.06-1.18-.13,0-4.63.15-9.29,0-14-.37-9.72-5.15-16.74-13.88-20.78a178.54,178.54,0,0,0-16.72-6.43c-4.64-1.61-7.33.44-7.36,5.54-.08,13.16,0,26.31,0,39.47,0,9.58-5.69,13.62-14.71,10.41q-29.31-10.44-58.59-21C3.82,92.5,1,90.4.45,85.66A4.09,4.09,0,0,0,.14,84C.09,59.27,0,34.51,0,9.76,0,5.37,2.17,2.2,6.55.31A23.18,23.18,0,0,1,11.3,0Z"/><path class="cls-1" d="M49.35,224.1a32,32,0,0,1-5.47-5.95,6.45,6.45,0,0,0,.76-2q0-40.17-.12-80.34s0,.12.26,0a8.39,8.39,0,0,0,1-1.66s0-.11.37-.16a8.61,8.61,0,0,0,1.74-1.39c8.81-3.33,17.62-6.66,27.2-9.84a38.72,38.72,0,0,0,5.52-.76c.06,16.81.1,33.61.21,50.41a38.06,38.06,0,0,0,.92,6.44c.45.86.71,1,1,1.15,0,0,0,0,0,.3a5.51,5.51,0,0,0,2,.66,3.9,3.9,0,0,1,1.77.14,4.29,4.29,0,0,0,2.21-1,2,2,0,0,1,.78-.24c.74-.13,1-.31,1.17-.57,3.85-1.5,7.68-3,11.54-4.47A27.06,27.06,0,0,0,116.55,163a5.74,5.74,0,0,0,1-2.28c.41-2.32.81-4.64,1.55-7.67.44-11.87.58-23,.57-34.16,0-3.27-.43-6.54-.66-9.82a3.24,3.24,0,0,1,.2-1.72c.73-.74,1.11-1.1,1.49-1.47,9.57-3.61,19.1-7.33,28.71-10.81a27.39,27.39,0,0,0,15.22-12.83,4.34,4.34,0,0,1,1.63-.14c.06,28.49.32,57,.06,85.45-.1,11.13-6.19,18.65-16.67,22.48-31.48,11.51-63,23-94.71,34.74a10.94,10.94,0,0,1-4,0Z"/><path class="cls-1" d="M49.45,224.32c.24-.07.58.07,1.1.45.16.23-.34.23-.59.23S49.56,224.54,49.45,224.32Z"/><path class="cls-1" d="M44.2,136c.37,26.53.42,53.31.44,80.09a3.43,3.43,0,0,1-.76,1.68,13.4,13.4,0,0,1-1.13-5q-.09-34.87,0-69.75A27.42,27.42,0,0,1,44.2,136Z"/><path class="cls-1" d="M118.93,109.5a80.44,80.44,0,0,1,.76,9.36c0,11.15-.13,22.29-.46,33.77C118.93,138.62,118.88,124.29,118.93,109.5Z"/><path class="cls-1" d="M166.4,81.7a2.11,2.11,0,0,1-1.53.27,16.81,16.81,0,0,1,.24-3.74l1-.07A28.14,28.14,0,0,1,166.4,81.7Z"/><path class="cls-1" d="M80.64,121.67a19.44,19.44,0,0,1-5.21,1.14A20.33,20.33,0,0,1,80.64,121.67Z"/><path class="cls-1" d="M88.42,180.07a2.72,2.72,0,0,1-1.6,1.07A2.76,2.76,0,0,1,88.42,180.07Z"/><path class="cls-1" d="M84.51,180.78a2.92,2.92,0,0,1-1.76-.5A2.93,2.93,0,0,1,84.51,180.78Z"/><path class="cls-1" d="M47.56,132.69A3.59,3.59,0,0,1,46.18,134,3.75,3.75,0,0,1,47.56,132.69Z"/><path class="cls-1" d="M117.31,160.88a2.76,2.76,0,0,1-.51,1.88A2.88,2.88,0,0,1,117.31,160.88Z"/><path class="cls-1" d="M45.49,134.25a2.36,2.36,0,0,1-.77,1.53A2.36,2.36,0,0,1,45.49,134.25Z"/><path class="cls-1" d="M120.41,105.85c-.07.37-.45.73-1.11,1.14C119.38,106.64,119.74,106.25,120.41,105.85Z"/><path class="cls-1" d="M82.61,179.79q-.27.14-.78-.54Q82.13,179.07,82.61,179.79Z"/><path class="cls-1" d="M90.42,179.29c0,.25-.19.43-.72.59C89.62,179.63,89.86,179.42,90.42,179.29Z"/><path class="cls-1" d="M0,84.28c.24.08.37.42.4,1C.2,85.22.07,84.89,0,84.28Z"/></g></g></svg>