<svg width="310" height="310" viewBox="0 0 310 310" fill="none" xmlns="http://www.w3.org/2000/svg">
<g clip-path="url(#clip0_19_117)">
<g clip-path="url(#clip1_19_117)">
<path d="M291.549 3.69043H18.4533C10.3343 3.69043 3.69141 10.3333 3.69141 18.4523V205.929C3.69141 214.048 10.3343 220.69 18.4533 220.69H71.5962V221.429C71.5962 222.167 71.5962 222.905 71.5962 223.643L59.0485 245.048C55.3581 250.952 56.8343 258.333 61.2628 262.762L78.9771 280.476C81.9295 283.429 85.62 284.905 89.3105 284.905C92.2628 284.905 94.4771 284.167 96.6914 282.69L118.096 270.143C118.834 269.405 120.31 269.405 121.049 270.143C121.787 270.881 122.525 271.619 123.263 272.357L129.168 296.714C130.644 303.357 136.549 307.786 143.191 307.786H167.549C174.191 307.786 180.096 303.357 181.572 296.714L187.477 272.357C187.477 271.619 188.953 270.143 189.691 270.143C190.429 269.405 191.906 270.143 192.644 270.143L214.049 282.69C216.263 284.167 219.215 284.905 221.429 284.905C225.12 284.905 228.81 283.429 231.763 280.476L249.477 262.762C253.906 258.333 255.382 250.952 251.691 245.048L239.144 223.643C239.144 222.905 238.406 222.167 239.144 221.429V220.69H292.287C300.406 220.69 307.049 214.048 307.049 205.929V18.4523C306.31 10.3333 299.668 3.69043 291.549 3.69043ZM12.5485 18.4523C12.5485 14.7619 14.7628 12.5476 18.4533 12.5476H292.287C295.239 12.5476 298.191 14.7619 298.191 18.4523V44.2857H12.5485V18.4523ZM66.4295 248.738L78.9771 227.333C80.4533 224.381 81.1914 220.69 80.4533 217.738C79.7152 214.786 77.5009 211.833 74.5485 210.357C73.8105 209.619 72.3343 209.619 71.5962 208.881L47.239 202.976C45.0247 202.238 42.8105 200.024 42.8105 197.809V173.452C42.8105 170.5 44.2866 168.286 47.239 168.286L71.5962 162.381C75.2866 161.643 78.239 158.69 79.7152 155C81.1914 151.309 81.1914 147.619 78.9771 143.929L66.4295 121.786C64.9533 119.571 65.6914 116.619 67.1676 115.143L84.8819 97.4285C85.62 96.6904 87.0962 95.9523 88.5724 95.9523C89.3104 95.9523 90.7866 95.9523 91.5247 96.6904L112.929 109.238C115.144 109.976 117.358 110.714 119.572 110.714C124.001 110.714 128.429 108.5 130.644 104.071C131.382 103.333 131.382 101.857 132.12 101.119L138.025 76.7619C138.763 74.5476 140.977 72.3333 143.191 72.3333H167.549C170.501 72.3333 172.715 73.8095 172.715 76.7619L178.62 101.119C179.358 104.809 182.31 107.762 186.001 109.238C189.691 110.714 193.382 110.714 197.072 108.5L218.477 95.9523C219.215 95.9523 220.691 95.9523 221.429 95.9523C222.906 95.9523 224.382 96.6904 225.12 97.4285L242.834 115.143C245.049 116.619 245.049 119.571 243.572 121.786L231.025 143.19C229.549 146.143 228.81 149.833 229.549 152.786C230.287 155.738 232.501 158.69 235.453 160.167C236.191 160.905 237.668 160.905 238.406 161.643L262.763 167.548C264.977 168.286 267.191 170.5 267.191 172.714V197.071C267.191 200.024 265.715 202.238 262.763 202.238L238.406 208.143C234.715 208.881 231.763 211.833 230.287 215.524C228.81 219.214 228.81 222.905 231.025 226.595L243.572 248C245.049 250.214 244.31 253.167 242.834 254.643L225.858 273.095C225.12 273.833 223.644 274.571 222.168 274.571C221.429 274.571 219.953 274.571 219.215 273.833L197.81 261.286C195.596 260.548 193.382 259.809 191.168 259.809C186.739 259.809 182.31 262.024 180.096 266.452C179.358 267.19 179.358 268.667 178.62 269.405L172.715 293.762C171.977 295.976 169.763 298.19 167.549 298.19H143.191C140.239 298.19 138.025 296.714 138.025 293.762L132.12 269.405C131.382 265.714 128.429 262.762 124.739 261.286C123.263 260.548 121.787 260.548 119.572 260.548C117.358 260.548 115.144 261.286 113.668 262.024L92.2628 274.571C91.5247 275.309 90.0485 275.309 89.3105 275.309C87.8343 275.309 86.3581 274.571 85.62 273.833L67.9057 256.119C64.9533 253.905 64.9533 250.952 66.4295 248.738ZM268.668 210.357C273.096 207.405 276.049 202.976 276.049 197.809V173.452C276.049 166.809 271.62 160.905 264.977 159.429L240.62 153.524C239.882 153.524 239.144 152.786 238.406 152.048C237.668 151.309 238.406 149.833 238.406 149.095L250.953 127.69C254.644 121.786 253.168 114.405 248.739 109.976L231.025 92.2619C228.81 88.5714 225.12 87.0952 221.429 87.0952C218.477 87.0952 216.263 87.8333 214.049 89.3095L192.644 101.857C191.906 102.595 190.429 102.595 189.691 101.857C188.953 101.119 188.215 100.381 187.477 99.6428L181.572 75.2857C180.096 68.6428 174.191 64.2142 167.549 64.2142H143.191C136.549 64.2142 130.644 68.6428 129.168 75.2857L123.263 99.6428C123.263 100.381 121.787 101.857 121.049 101.857C120.31 102.595 118.834 101.857 118.096 101.857L95.9533 88.5714C93.739 87.0952 90.7866 86.3571 88.5724 86.3571C84.8819 86.3571 81.1914 87.8333 78.239 90.7857L60.5247 108.5C56.0962 112.929 54.62 120.309 58.3105 126.214L71.5962 147.619C72.3343 148.357 72.3343 149.833 71.5962 150.571C70.8581 151.309 70.12 152.048 69.3819 152.786L45.0247 158.69C38.3819 160.167 33.9533 166.071 33.9533 172.714V197.071C33.9533 202.238 36.9057 206.667 41.3343 209.619L43.5485 211.095H18.4533C15.5009 211.095 12.5485 208.881 12.5485 205.19V53.1428H297.453V205.929C297.453 208.881 295.239 211.833 291.549 211.833H266.453L268.668 210.357ZM23.62 23.619H32.4771V32.4761H23.62V23.619ZM44.2866 23.619H53.1438V32.4761H44.2866V23.619ZM64.2152 23.619H73.0724V32.4761H64.2152V23.619ZM155.001 245.786C188.215 245.786 214.787 218.476 214.787 186C214.787 152.786 187.477 126.214 155.001 126.214C121.787 126.214 95.2152 153.524 95.2152 186C95.2152 218.476 121.787 245.786 155.001 245.786ZM104.072 185.262C104.072 157.214 126.953 134.333 155.001 134.333C183.049 134.333 205.929 157.214 205.929 185.262C205.929 213.309 183.049 236.19 155.001 236.19C126.953 236.929 104.072 213.309 104.072 185.262ZM159.429 189.69H150.572V180.833H159.429V189.69ZM179.358 189.69H170.501V180.833H179.358V189.69ZM139.501 189.69H130.644V180.833H139.501V189.69Z" fill="#31BBAE"/>
</g>
</g>
<defs>
<clipPath id="clip0_19_117">
<rect width="310" height="310" fill="white"/>
</clipPath>
<clipPath id="clip1_19_117">
<rect width="310" height="310" fill="white"/>
</clipPath>
</defs>
</svg>
