<?xml version="1.0" standalone="no"?>
<!DOCTYPE svg PUBLIC "-//W3C//DTD SVG 20010904//EN"
 "http://www.w3.org/TR/2001/REC-SVG-20010904/DTD/svg10.dtd">
<svg version="1.0" xmlns="http://www.w3.org/2000/svg"
 width="512.000000pt" height="512.000000pt" viewBox="0 0 512.000000 512.000000"
 preserveAspectRatio="xMidYMid meet">

<g transform="translate(0.000000,512.000000) scale(0.100000,-0.100000)"
fill="#76AC50" stroke="none">
<path d="M1346 5029 c-62 -15 -153 -68 -197 -116 -22 -24 -55 -74 -72 -111
l-32 -67 -3 -287 -3 -288 -135 0 c-130 0 -136 -1 -159 -25 l-25 -24 0 -1271 0
-1271 25 -24 c23 -24 29 -25 159 -25 l135 0 3 -568 3 -568 37 -76 c45 -91 103
-147 196 -191 l67 -32 1215 0 1215 0 67 32 c93 44 151 100 196 191 l37 76 3
568 3 568 135 0 c130 0 136 1 159 25 l25 24 0 1271 0 1271 -25 24 c-23 24 -29
25 -159 25 l-135 0 -3 288 -3 287 -32 67 c-44 93 -100 151 -191 196 l-76 37
-1195 2 c-701 1 -1212 -3 -1235 -8z m2408 -161 c55 -16 138 -99 154 -154 8
-28 12 -126 12 -298 l0 -256 -1360 0 -1360 0 0 256 c0 172 4 270 12 298 15 51
99 137 148 153 53 17 2338 17 2394 1z m486 -1108 l0 -240 -1680 0 -1680 0 0
240 0 240 1680 0 1680 0 0 -240z m0 -1240 l0 -840 -1680 0 -1680 0 0 840 0
840 1680 0 1680 0 0 -840z m-320 -1240 l0 -240 -1360 0 -1360 0 0 240 0 240
1360 0 1360 0 0 -240z m0 -616 c0 -141 -4 -231 -12 -258 -16 -55 -99 -138
-154 -154 -60 -17 -2328 -17 -2388 0 -55 16 -138 99 -154 154 -8 27 -12 117
-12 258 l0 216 1360 0 1360 0 0 -216z"/>
<path d="M2185 4695 c-16 -15 -25 -36 -25 -55 0 -19 9 -40 25 -55 l24 -25 351
0 351 0 24 25 c16 15 25 36 25 55 0 19 -9 40 -25 55 l-24 25 -351 0 -351 0
-24 -25z"/>
<path d="M3145 4695 c-16 -15 -25 -36 -25 -55 0 -19 9 -40 25 -55 15 -16 36
-25 55 -25 19 0 40 9 55 25 16 15 25 36 25 55 0 19 -9 40 -25 55 -15 16 -36
25 -55 25 -19 0 -40 -9 -55 -25z"/>
<path d="M3305 3815 c-16 -15 -25 -36 -25 -55 0 -19 9 -40 25 -55 15 -16 36
-25 55 -25 19 0 40 9 55 25 16 15 25 36 25 55 0 19 -9 40 -25 55 -15 16 -36
25 -55 25 -19 0 -40 -9 -55 -25z"/>
<path d="M3625 3815 c-16 -15 -25 -36 -25 -55 0 -19 9 -40 25 -55 15 -16 36
-25 55 -25 19 0 40 9 55 25 16 15 25 36 25 55 0 19 -9 40 -25 55 -15 16 -36
25 -55 25 -19 0 -40 -9 -55 -25z"/>
<path d="M3945 3815 c-16 -15 -25 -36 -25 -55 0 -19 9 -40 25 -55 15 -16 36
-25 55 -25 19 0 40 9 55 25 16 15 25 36 25 55 0 19 -9 40 -25 55 -15 16 -36
25 -55 25 -19 0 -40 -9 -55 -25z"/>
<path d="M2752 3183 c-24 -21 -512 -1157 -512 -1191 0 -57 84 -92 128 -54 24
20 512 1156 512 1190 0 57 -84 92 -128 55z"/>
<path d="M1703 2817 c-204 -203 -223 -225 -223 -257 0 -31 19 -53 216 -251
125 -125 228 -220 242 -224 56 -14 113 43 97 97 -4 13 -86 103 -183 201 l-177
177 177 178 c97 97 179 187 183 200 15 50 -30 102 -88 102 -15 0 -90 -69 -244
-223z"/>
<path d="M3124 3028 c-24 -11 -44 -48 -44 -80 0 -15 60 -82 182 -205 l182
-183 -182 -183 c-161 -162 -182 -187 -182 -216 0 -43 38 -81 82 -81 29 0 56
23 255 223 205 204 223 225 223 257 0 32 -18 53 -223 257 -232 232 -239 238
-293 211z"/>
<path d="M2480 787 c-49 -16 -133 -102 -148 -153 -28 -94 -8 -169 63 -239 101
-102 229 -102 330 0 52 51 75 102 75 165 0 63 -23 114 -75 165 -70 71 -152 91
-245 62z m135 -172 c50 -49 15 -135 -55 -135 -19 0 -40 9 -55 25 -50 49 -15
135 55 135 19 0 40 -9 55 -25z"/>
<path d="M1545 615 c-16 -15 -25 -36 -25 -55 0 -19 9 -40 25 -55 24 -25 26
-25 215 -25 189 0 191 0 215 25 16 15 25 36 25 55 0 19 -9 40 -25 55 -24 25
-26 25 -215 25 -189 0 -191 0 -215 -25z"/>
<path d="M3145 615 c-16 -15 -25 -36 -25 -55 0 -19 9 -40 25 -55 24 -25 26
-25 215 -25 189 0 191 0 215 25 16 15 25 36 25 55 0 19 -9 40 -25 55 -24 25
-26 25 -215 25 -189 0 -191 0 -215 -25z"/>
</g>
</svg>
